<svg id="Capa_1" enable-background="new 0 0 512 512" height="512" viewBox="0 0 512 512" width="512" xmlns="http://www.w3.org/2000/svg"><g><g><path d="m477.748 399.331c0 21.731-17.613 39.344-39.344 39.344h-364.818c-10.866 0-20.696-4.403-27.814-11.52-7.117-7.128-11.52-16.958-11.52-27.824 0-21.721 17.613-39.344 39.334-39.344h11.541v-137.885h341.745v137.885h11.531c10.866 0 20.697 4.403 27.824 11.531 7.118 7.117 11.521 16.958 11.521 27.813z" fill="#f4dd45"/><path d="m289.737 438.676h-216.14c-10.866 0-20.696-4.403-27.824-11.52-7.117-7.128-11.52-16.958-11.52-27.824 0-21.721 17.613-39.344 39.344-39.344h11.531v-137.886h92.933v72.607z" fill="#eab14d"/><path d="m382.831 512h-253.658l6.188-30.137c5.09-24.815 24.424-43.674 48.415-48.753 4.213-.898 8.574-1.362 13.03-1.362h118.392c4.445 0 8.807.465 13.02 1.362 23.991 5.079 43.336 23.938 48.426 48.753z" fill="#e7ecf1"/><path d="m220.834 431.749c-2.64 0-5.227.465-7.729 1.362-14.255 5.079-25.733 23.938-28.764 48.753l-3.675 30.136h-51.498l6.188-30.137c5.09-24.815 24.424-43.674 48.415-48.753 4.213-.898 8.574-1.362 13.03-1.362h24.033z" fill="#c6d0da"/><path d="m291.091 373.144v58.605c0 19.376-15.712 35.089-35.089 35.089-19.387 0-35.099-15.712-35.099-35.089v-58.605z" fill="#ffcbbe"/><path d="m267.461 464.924c-3.59 1.235-7.444 1.911-11.457 1.911-19.387 0-35.1-15.712-35.1-35.089v-58.605h22.914v58.605c.001 15.375 9.884 28.437 23.643 33.178z" fill="#eaac9d"/><path d="m109.397 324.345c-25.302 0-45.813-20.511-45.813-45.813 0-3.482.389-6.874 1.125-10.134 5.943-26.321 44.688-22.004 44.688 4.98h293.203c0-26.984 38.745-31.301 44.688-4.98.736 3.26 1.125 6.651 1.125 10.134 0 25.302-20.511 45.813-45.813 45.813" fill="#eaac9d"/><path d="m109.404 295.613c-2.428 0-4.816-1.141-6.32-3.273-.171-.235-7.405-10.102-15.066-7.009-3.957 1.596-8.459-.317-10.056-4.275-1.596-3.957.318-8.459 4.275-10.056 8.035-3.241 16.786-1.935 24.635 3.677 5.291 3.782 8.512 8.287 8.861 8.788 2.443 3.499 1.586 8.315-1.913 10.758-1.347.938-2.889 1.39-4.416 1.39z" fill="#df9380"/><path d="m402.594 295.588c-1.538 0-3.09-.457-4.439-1.41-3.471-2.452-4.323-7.228-1.891-10.713.35-.501 3.57-5.006 8.861-8.788 7.85-5.612 16.599-6.918 24.635-3.677 3.957 1.597 5.871 6.099 4.275 10.056s-6.099 5.87-10.056 4.275c-7.712-3.116-14.996 6.911-15.069 7.013-1.51 2.112-3.896 3.244-6.316 3.244z" fill="#df9380"/><path d="m220.902 373.144h70.188v53.99h-70.188z" fill="#eaac9d"/><path d="m402.597 222.102v79.608c0 59.006-47.834 106.851-106.851 106.851h-79.502c-59.006 0-106.851-47.834-106.851-106.851v-79.608z" fill="#ffcbbe"/><path d="m179.592 222.102v79.607c0 59.006 47.834 106.851 106.851 106.851h-70.199c-59.006 0-106.851-47.834-106.851-106.851v-79.607z" fill="#eaac9d"/><path d="m255.991 347.299c-15.277 0-28.984-9.1-34.922-23.182-1.658-3.932.186-8.464 4.117-10.121 3.935-1.659 8.463.186 10.121 4.117 3.518 8.343 11.636 13.733 20.684 13.733s17.166-5.39 20.683-13.733c1.657-3.931 6.191-5.776 10.121-4.118 3.932 1.658 5.776 6.189 4.118 10.121-5.936 14.084-19.645 23.183-34.922 23.183z" fill="#dd636e"/><g fill="#e490b7"><ellipse cx="342.355" cy="309.303" rx="23.998" ry="14.592"/><ellipse cx="169.643" cy="309.303" rx="23.998" ry="14.592"/></g><path d="m270.275 292.773h-28.552c-4.267 0-7.726-3.459-7.726-7.726s3.459-7.726 7.726-7.726h28.552c4.267 0 7.726 3.459 7.726 7.726s-3.459 7.726-7.726 7.726z" fill="#eaac9d"/><g fill="#454045"><path d="m180.788 241.63c-.483 0-.981.044-1.436.127h-15.863c-4.509 0-8.177 3.668-8.177 8.177s3.668 8.177 8.177 8.177h3.924c-.385 2.142-.58 4.363-.58 6.606 0 12.73 6.26 23.087 13.955 23.087s13.955-10.357 13.955-23.087c0-12.731-6.26-23.087-13.955-23.087z"/><path d="m349.564 241.757-16.875.004c-.499-.087-.996-.131-1.48-.131-7.695 0-13.955 10.357-13.955 23.087s6.26 23.087 13.955 23.087 13.956-10.357 13.956-23.087c0-2.241-.195-4.462-.581-6.606h4.98c4.509 0 8.177-3.668 8.177-8.177s-3.668-8.177-8.177-8.177z"/></g><g><path d="m350.417 134.796-13.304 28.181-173.367-28.117c-7.415-30.722-25.487-100.09 33.971-126.319 45.756-20.187 92.681 1.747 92.681 1.747s103.141-20.042 60.019 124.508z" fill="#b16e3d"/><path d="m213.715 115.859-38.844 47.118-11.125-28.116c-7.415-30.722-25.487-100.09 33.971-126.319 45.756-20.187 92.681 1.747 92.681 1.747-86.271-.001-91.518 74.614-76.683 105.57z" fill="#985e33"/><path d="m174.874 175.502c-14.001 0-25.35-11.35-25.35-25.35 0-1.927.215-3.804.622-5.607 3.289-14.565 24.728-12.176 24.728 2.755h162.242c0-14.931 21.439-17.32 24.728-2.755.407 1.804.622 3.68.622 5.607 0 14.001-11.35 25.35-25.35 25.35" fill="#eaac9d"/><path d="m337.113 121.626v41.351c0 32.651-26.469 59.125-59.125 59.125h-43.992c-32.651 0-59.125-26.475-59.125-59.125v-40.188c12.457-1.7 25.709-3.962 38.844-6.93 31.844-7.187 63.04-18.551 80.762-36.273 0-.001 11.242 37.377 42.636 42.04z" fill="#ffcbbe"/><path d="m272.84 222.102h-38.844c-32.651 0-59.125-26.475-59.125-59.125v-40.188c12.457-1.7 25.709-3.962 38.844-6.93v47.118c0 32.65 26.469 59.125 59.125 59.125z" fill="#eaac9d"/><g fill="#454045"><path d="m214.377 129.746c-4.251 0-7.708 5.725-7.708 12.762s3.458 12.761 7.708 12.761c4.251 0 7.709-5.724 7.709-12.761s-3.458-12.762-7.709-12.762z"/><path d="m297.612 129.746c-4.25 0-7.708 5.725-7.708 12.762s3.458 12.761 7.708 12.761c4.251 0 7.708-5.724 7.708-12.761s-3.457-12.762-7.708-12.762z"/></g><path d="m255.997 186.541c-9.222 0-17.496-5.493-21.081-13.993-1.326-3.145.149-6.771 3.294-8.097 3.145-1.325 6.771.148 8.097 3.294 1.648 3.908 5.451 6.434 9.689 6.434s8.041-2.525 9.689-6.434c1.326-3.146 4.951-4.62 8.097-3.295 3.146 1.326 4.621 4.951 3.295 8.097-3.584 8.501-11.858 13.994-21.08 13.994z" fill="#dd636e"/><g fill="#e490b7"><ellipse cx="303.779" cy="167.179" rx="13.279" ry="8.074"/><ellipse cx="208.211" cy="167.179" rx="13.279" ry="8.074"/></g><path d="m263.895 159.938h-15.799c-3.413 0-6.181-2.768-6.181-6.181s2.768-6.181 6.181-6.181h15.799c3.413 0 6.181 2.768 6.181 6.181s-2.768 6.181-6.181 6.181z" fill="#eaac9d"/></g></g><g fill="#dd636e"><g><path d="m90.755 171.503c-1.977 0-3.955-.755-5.463-2.263l-21.801-21.801c-3.018-3.017-3.018-7.909 0-10.927 3.017-3.017 7.909-3.017 10.927 0l21.801 21.801c3.018 3.017 3.018 7.909 0 10.927-1.509 1.508-3.486 2.263-5.464 2.263z"/><g><path d="m112.908 156.638c-3.106 0-6.035-1.886-7.215-4.96l-8.368-21.801c-1.529-3.984.461-8.453 4.445-9.982 3.983-1.529 8.453.461 9.982 4.445l8.368 21.801c1.529 3.983-.461 8.453-4.445 9.982-.91.35-1.846.515-2.767.515z"/><path d="m75.887 193.656c-.921 0-1.856-.165-2.767-.515l-21.801-8.368c-3.984-1.529-5.974-5.998-4.445-9.982 1.529-3.983 5.996-5.974 9.982-4.445l21.801 8.368c3.984 1.529 5.974 5.998 4.445 9.982-1.18 3.074-4.109 4.96-7.215 4.96z"/></g></g><g><path d="m421.243 171.503c-1.977 0-3.955-.755-5.463-2.263-3.018-3.017-3.018-7.909 0-10.927l21.801-21.801c3.017-3.017 7.909-3.017 10.927 0s3.018 7.909 0 10.927l-21.801 21.801c-1.509 1.508-3.487 2.263-5.464 2.263z"/><g><path d="m399.09 156.638c-.921 0-1.856-.165-2.767-.515-3.984-1.529-5.974-5.999-4.445-9.982l8.368-21.801c1.529-3.984 5.999-5.973 9.982-4.445 3.984 1.529 5.974 5.998 4.445 9.982l-8.368 21.801c-1.18 3.073-4.11 4.96-7.215 4.96z"/><path d="m436.111 193.656c-3.106 0-6.035-1.887-7.215-4.96-1.529-3.984.461-8.453 4.445-9.982l21.801-8.368c3.983-1.53 8.453.461 9.982 4.445s-.461 8.453-4.445 9.982l-21.801 8.368c-.91.35-1.846.515-2.767.515z"/></g></g></g></g></svg>