<?xml version="1.0" encoding="iso-8859-1"?>
<!-- Generator: Adobe Illustrator 19.0.0, SVG Export Plug-In . SVG Version: 6.00 Build 0)  -->
<svg version="1.1" id="Capa_1" xmlns="http://www.w3.org/2000/svg" xmlns:xlink="http://www.w3.org/1999/xlink" x="0px" y="0px"
	 viewBox="0 0 512 512" style="enable-background:new 0 0 512 512;" xml:space="preserve">
<path style="fill:#116F97;" d="M330.75,185c-28.948,0-52.5-23.551-52.5-52.5c0-4.142-3.357-7.5-7.5-7.5s-7.5,3.358-7.5,7.5
	c0,37.22,30.28,67.5,67.5,67.5h75v-15H330.75z"/>
<g>
	<path style="fill:#49C9FF;" d="M48.75,417.5v87c0,4.143,3.358,7.5,7.5,7.5s7.5-3.357,7.5-7.5v-87H48.75z"/>
	<path style="fill:#49C9FF;" d="M18.75,387.5l15,60c16.569,0,30-13.432,30-30v-5L18.75,387.5z"/>
</g>
<g>
	<path style="fill:#7DD9FF;" d="M3.75,417.5v87c0,4.143,3.358,7.5,7.5,7.5s7.5-3.357,7.5-7.5v-87H3.75z"/>
	<path style="fill:#7DD9FF;" d="M3.75,412.5v5c0,16.568,13.431,30,30,30v-60L3.75,412.5z"/>
</g>
<path style="fill:#CF301B;" d="M33.75,352.5h10c11.046,0,20,8.954,20,20v40h-30l-15-35L33.75,352.5z"/>
<path style="fill:#FF4128;" d="M33.75,352.5h-10c-11.046,0-20,8.954-20,20v40h30V352.5z"/>
<path style="fill:#C27749;" d="M33.75,262.5l-15,30l15,30c16.569,0,30-13.431,30-30S50.319,262.5,33.75,262.5z"/>
<path style="fill:#E18F4E;" d="M3.75,292.5c0,16.569,13.431,30,30,30v-60C17.181,262.5,3.75,275.931,3.75,292.5z"/>
<path style="fill:#49C9FF;" d="M93.75,417.5v87c0,4.143,3.358,7.5,7.5,7.5s7.5-3.357,7.5-7.5v-87H93.75z"/>
<g>
	<path style="fill:#2DADE3;" d="M138.75,417.5v87c0,4.143,3.358,7.5,7.5,7.5s7.5-3.357,7.5-7.5v-87H138.75z"/>
	<path style="fill:#2DADE3;" d="M108.75,387.5l15,60c16.569,0,30-13.432,30-30v-5L108.75,387.5z"/>
</g>
<path style="fill:#49C9FF;" d="M93.75,412.5v5c0,16.568,13.431,30,30,30v-60L93.75,412.5z"/>
<path style="fill:#869E47;" d="M123.75,352.5h10c11.046,0,20,8.954,20,20v40h-30l-15-35L123.75,352.5z"/>
<path style="fill:#9DB55F;" d="M123.75,352.5h-10c-11.046,0-20,8.954-20,20v40h30V352.5z"/>
<path style="fill:#60312C;" d="M123.75,262.5l-15,30l15,30c16.569,0,30-13.431,30-30S140.319,262.5,123.75,262.5z"/>
<path style="fill:#85453D;" d="M93.75,292.5c0,16.569,13.431,30,30,30v-60C107.181,262.5,93.75,275.931,93.75,292.5z"/>
<g>
	<path style="fill:#49C9FF;" d="M228.75,417.5v87c0,4.143,3.358,7.5,7.5,7.5s7.5-3.357,7.5-7.5v-87H228.75z"/>
	<path style="fill:#49C9FF;" d="M198.75,387.5l15,60c16.569,0,30-13.432,30-30v-5L198.75,387.5z"/>
</g>
<g>
	<path style="fill:#7DD9FF;" d="M183.75,417.5v87c0,4.143,3.358,7.5,7.5,7.5s7.5-3.357,7.5-7.5v-87H183.75z"/>
	<path style="fill:#7DD9FF;" d="M183.75,412.5v5c0,16.568,13.431,30,30,30v-60L183.75,412.5z"/>
</g>
<path style="fill:#FFA754;" d="M213.75,352.5h10c11.046,0,20,8.954,20,20v40h-30l-15-35L213.75,352.5z"/>
<path style="fill:#FFCB63;" d="M213.75,352.5h-10c-11.046,0-20,8.954-20,20v40h30V352.5z"/>
<path style="fill:#FF8D7E;" d="M213.75,262.5l-15,30l15,30c16.569,0,30-13.431,30-30S230.319,262.5,213.75,262.5z"/>
<path style="fill:#FFB4A9;" d="M183.75,292.5c0,16.569,13.431,30,30,30v-60C197.181,262.5,183.75,275.931,183.75,292.5z"/>
<polygon style="fill:#FF4128;" points="270.75,67.5 330.75,37.5 270.75,7.5 "/>
<path style="fill:#FF8646;" d="M270.75,110c-4.143,0-7.5-3.358-7.5-7.5v-95c0-4.142,3.357-7.5,7.5-7.5s7.5,3.358,7.5,7.5v95
	C278.25,106.642,274.893,110,270.75,110z"/>
<path style="fill:#084F6D;" d="M450.75,185h-75v15h75c23.435,0,42.5,19.065,42.5,42.5s-19.065,42.5-42.5,42.5h-75v15h75
	c31.706,0,57.5-25.794,57.5-57.5S482.456,185,450.75,185z"/>
<path style="fill:#116F97;" d="M368.25,292.504v196.588l-24.872,8.29c-3.93,1.31-6.053,5.557-4.743,9.487s5.555,6.053,9.487,4.744
	l30-10c3.062-1.021,5.128-3.887,5.128-7.115V292.504H368.25z"/>
<g>
	<path style="fill:#084F6D;" d="M428.25,292.504v196.588l-24.872,8.29c-3.93,1.31-6.053,5.557-4.743,9.487s5.555,6.053,9.487,4.744
		l30-10c3.062-1.021,5.128-3.887,5.128-7.115V292.504H428.25z"/>
	<path style="fill:#084F6D;" d="M430.75,172.5l-55,14.998l30,105.002h45v-100C450.75,181.454,441.796,172.5,430.75,172.5z"/>
</g>
<path style="fill:#116F97;" d="M380.75,172.5c-11.046,0-20,8.954-20,20v100h45V187.498L380.75,172.5z"/>
<polygon style="fill:#DBF4FF;" points="380.75,172.5 405.75,217.49 430.75,172.5 "/>
<path style="fill:#116F97;" d="M450.75,262.5h-30l15,90h30v-50.335C465.75,286.954,460.079,273.075,450.75,262.5z"/>
<path style="fill:#1990C2;" d="M420.75,262.5h-60c-9.329,10.575-15,24.454-15,39.665V352.5h90v-50.335
	C435.75,286.954,430.079,273.075,420.75,262.5z"/>
<path style="fill:#FFB4A9;" d="M419.842,82.047L405.75,142.5c24.853,0,45-20.147,45-45L419.842,82.047z"/>
<path style="fill:#FFD9D4;" d="M420.75,97.5c0-5.429-0.321-10.634-0.908-15.453l-41.095-20.546
	C367.82,69.712,360.75,82.78,360.75,97.5c0,24.853,20.147,45,45,45C414.034,142.5,420.75,122.353,420.75,97.5z"/>
<g>
	<circle style="fill:#E18F4E;" cx="405.75" cy="30" r="22.5"/>
	<path style="fill:#E18F4E;" d="M405.75,52.5l14.899,39.832c9.413,3.341,19.543,5.168,30.101,5.168
		C450.75,72.647,430.603,52.5,405.75,52.5z"/>
</g>
<path style="fill:#FFA754;" d="M405.75,52.5c-10.132,0-19.481,3.35-27.003,9.002c10.532,14.02,25.066,24.856,41.901,30.831
	C419.794,69.915,413.451,52.5,405.75,52.5z"/>
<g>
</g>
<g>
</g>
<g>
</g>
<g>
</g>
<g>
</g>
<g>
</g>
<g>
</g>
<g>
</g>
<g>
</g>
<g>
</g>
<g>
</g>
<g>
</g>
<g>
</g>
<g>
</g>
<g>
</g>
</svg>
