<svg id="Capa_1" enable-background="new 0 0 497.131 497.131" height="512" viewBox="0 0 497.131 497.131" width="512" xmlns="http://www.w3.org/2000/svg"><g><path d="m88.936 225.568h-31.835v19.249c0 7.943 6.439 14.382 14.382 14.382h3.071c7.943 0 14.382-6.439 14.382-14.382z" fill="#a59ca6"/><path d="m298.798 360.043 1.948.299c42.202 6.481 75.014-36.06 58.026-75.232l-16.281-37.54c-1.607-3.706-2.713-7.609-3.288-11.607-6.488-45.091-45.122-78.563-90.677-78.563-45.555 0-84.189 33.473-90.676 78.563-.575 3.998-1.681 7.901-3.288 11.607l-16.281 37.54c-16.988 39.172 15.823 81.713 58.026 75.232l1.948-.299 31.291-7.509h42.187z" fill="#a59ca6"/><path d="m271.732 403.087 43.053 17.273c23.875 9.579 39.523 32.717 39.523 58.442v9.311c0 4.98-4.037 9.018-9.018 9.018h-195.528c-4.98 0-9.018-4.037-9.018-9.018v-9.311c0-25.725 15.648-48.863 39.523-58.442l43.053-17.273 13.202-5.305h22.568z" fill="#e79098"/><path d="m271.732 403.087-.209-.088-2.805.341-40.415 14.1v-16.355l-4.983 2.002-43.054 17.274c-23.875 9.579-39.522 32.717-39.522 58.441v9.312c0 4.98 4.037 9.018 9.018 9.018h15.188v-7.336c0-25.725 15.648-48.863 39.522-58.441l3.647-1.463c4.436-1.78 9.555-.987 13.094 2.226 6.96 6.319 16.193 10.176 26.313 10.176 19.633 0 35.939-14.506 38.769-33.363z" fill="#e17983"/><path d="m271.732 403.087c0 13.369-10.837 24.206-24.206 24.206s-24.206-10.837-24.206-24.206v-57.948h48.412z" fill="#ffd1c2"/><g><path d="m308.386 255.665v69.018c0 33.06-26.8 59.86-59.86 59.86-33.06 0-59.86-26.8-59.86-59.86v-51.944c0-15.981 5.441-31.486 15.428-43.963 1.737-2.171 4.911-2.509 7.067-.755l2.794 2.273c12.574 10.23 28.181 16.01 44.386 16.437l42.433 1.119c4.236.111 7.612 3.577 7.612 7.815z" fill="#ffe0d1"/><path d="m197.292 243.074 3.756 2.76c16.905 12.42 37.888 19.436 59.673 19.955l47.665 1.135v-11.259c0-4.237-3.376-7.703-7.612-7.815l-42.433-1.119c-16.204-.427-31.812-6.207-44.386-16.437l-2.794-2.273c-2.156-1.755-5.33-1.416-7.067.755-3.333 4.165-6.147 8.672-8.435 13.416.574.219 1.125.509 1.633.882z" fill="#ffd1c2"/><path d="m125.388 154.282c0-35.659-35.639-62.994-73.241-48.327-12.459 4.859-22.408 14.716-27.333 27.149-7.545 19.046-4.292 37.605 5.375 51.317l25.199 39.23v7.575c0 1.845 1.496 3.342 3.342 3.342h28.579c1.845 0 3.341-1.496 3.341-3.341v-7.575l25.199-39.23c6.008-8.524 9.539-18.919 9.539-30.14z" fill="#fbe88c"/><g fill="#f9de58"><path d="m77.722 231.227v-7.575l-25.199-39.23c-9.667-13.712-12.92-32.271-5.375-51.317 4.926-12.433 14.874-22.29 27.333-27.149 3.23-1.26 6.431-2.213 9.611-2.875-9.902-2.135-20.83-1.461-31.945 2.875-12.459 4.86-22.408 14.716-27.333 27.149-7.545 19.046-4.292 37.605 5.375 51.317l25.199 39.23v7.575c0 1.845 1.496 3.342 3.342 3.342h22.334c-1.846-.001-3.342-1.497-3.342-3.342z"/><path d="m80.518 234.568v-70.789c0-4.143-3.357-7.5-7.5-7.5s-7.5 3.357-7.5 7.5v70.789z"/><path d="m79.171 182.089h-12.306c-4.119 0-7.457-3.339-7.457-7.457v-12.306c0-4.119 3.339-7.457 7.457-7.457h12.306c4.119 0 7.457 3.339 7.457 7.457v12.306c.001 4.118-3.338 7.457-7.457 7.457z"/></g><circle cx="247.526" cy="59.084" fill="#b3e5ee" r="59.084"/><path d="m214.239 55.495c0-25.278 15.894-46.855 38.217-55.292-1.622-.134-3.273-.203-4.93-.203-32.631 0-59.084 26.453-59.084 59.084s26.453 59.083 59.084 59.083c7.353 0 14.387-1.341 20.88-3.795-30.328-2.501-54.167-27.903-54.167-58.877z" fill="#86d7e5"/><g><path d="m239.641 86.308c-1.919 0-3.839-.732-5.303-2.196l-10.348-10.348c-2.93-2.929-2.93-7.678-.001-10.606 2.93-2.93 7.679-2.929 10.606-.001l5.046 5.045 29.734-29.735c2.93-2.928 7.678-2.928 10.607 0 2.929 2.93 2.929 7.678 0 10.607l-35.038 35.038c-1.464 1.464-3.384 2.196-5.303 2.196z" fill="#f9f7f7"/></g><path d="m422.124 104.255 14.707 29.8c.612 1.24 1.795 2.099 3.163 2.298l32.886 4.779c3.446.501 4.822 4.735 2.328 7.165l-23.797 23.196c-.99.965-1.442 2.356-1.208 3.718l5.618 32.753c.589 3.432-3.013 6.049-6.095 4.428l-29.414-15.464c-1.224-.643-2.686-.643-3.91 0l-29.414 15.464c-3.082 1.62-6.684-.997-6.095-4.428l5.618-32.753c.234-1.363-.218-2.753-1.208-3.718l-23.797-23.196c-2.493-2.43-1.117-6.665 2.328-7.165l32.886-4.779c1.368-.199 2.551-1.058 3.163-2.298l14.707-29.8c1.541-3.123 5.993-3.123 7.534 0z" fill="#fbe88c"/><path d="m455.822 207.964-.608-3.547-34.551-18.165c-1.443-.759-3.167-.759-4.61 0l-16.367 8.604c-2.215 1.165-4.804-.716-4.381-3.183l3.443-20.071c.283-1.652-.264-3.337-1.464-4.507l-13.418-13.079c-2.542-2.478-1.139-6.796 2.374-7.306l18.518-2.691c1.553-.226 2.895-1.201 3.59-2.608l16.058-32.538-2.28-4.62c-1.541-3.122-5.993-3.123-7.534 0l-14.707 29.8c-.612 1.24-1.794 2.099-3.163 2.298l-32.887 4.779c-3.446.501-4.822 4.735-2.328 7.166l23.797 23.196c.99.965 1.442 2.356 1.208 3.718l-5.618 32.753c-.589 3.432 3.013 6.049 6.095 4.428l29.415-15.464c1.224-.643 2.686-.643 3.91 0l29.415 15.464c3.08 1.622 6.682-.995 6.093-4.427z" fill="#f9de58"/><g fill="#e79098"><path d="m168.691 73.511-13.744-4.678c-3.918-1.338-8.182.761-9.516 4.684-.965 2.834-.131 5.839 1.883 7.795-7.558 3.591-14.954 7.601-22.07 11.973-3.529 2.169-4.633 6.787-2.465 10.316 1.416 2.306 3.877 3.575 6.397 3.575 1.339 0 2.695-.358 3.919-1.11 7.002-4.302 14.293-8.224 21.744-11.714l-.39 1.46c-1.07 4.001 1.307 8.112 5.309 9.183.648.173 1.3.256 1.941.256 3.312 0 6.345-2.213 7.241-5.565l4.58-17.138c1.02-3.814-1.092-7.765-4.829-9.037z"/><path d="m377.551 84.663c-4.143 0-7.5 3.357-7.5 7.5v1.296c-11.937-7.353-24.524-13.649-37.546-18.728-3.859-1.506-8.207.402-9.713 4.262-1.505 3.858.402 8.207 4.262 9.713 11.445 4.464 22.534 9.932 33.097 16.281-3.302 1.551-5.069 5.316-3.996 8.919.97 3.255 3.953 5.36 7.185 5.36.709 0 1.43-.102 2.145-.314l14.208-4.232c3.179-.946 5.358-3.87 5.358-7.188v-15.369c0-4.143-3.358-7.5-7.5-7.5z"/></g></g></g></svg>