<svg id="Capa_1" enable-background="new 0 0 512 512" height="512" viewBox="0 0 512 512" width="512" xmlns="http://www.w3.org/2000/svg"><g><g><path d="m253.806 230.671c.733 0 1.463.017 2.194.027l11.699-29.575-11.699-26.182c-2.231-.067-4.465-.112-6.707-.112-74.254 0-142.867 37.154-183.542 99.386l51.287 30.514c30.309-46.373 81.437-74.058 136.768-74.058z" fill="#89ce6d"/><path d="m404.235 239.008c-39.802-39.801-92.22-62.394-148.235-64.067v55.756c42.792.56 82.94 17.476 113.262 47.797 29.328 29.328 46.126 67.849 47.701 109.065.056 1.476 51.396.664 51.287-2.186-2.115-55.311-24.657-107.006-64.015-146.365z" fill="#5eb16a"/><path d="m253.806 230.671c-55.331 0-106.459 27.685-136.768 74.058l52.531 39.632c28.346-39.016 66.645-45.732 86.432-46.854l11.699-36.935-11.7-29.874c-.731-.01-1.461-.027-2.194-.027z" fill="#fd6c5f"/><path d="m256 230.698v66.809c5.004-.284 8.825-.21 11.001-.21 0 0 78.643 15.434 79.304 95.645 26.787-1.394 70.715-3.906 70.659-5.383-1.576-41.216-18.373-79.736-47.701-109.065-30.323-30.321-70.471-47.236-113.263-47.796z" fill="#fd465f"/></g><g><path d="m247.773 156.015c-80.629 0-155.135 40.344-199.302 107.92l25.112 16.414c38.606-59.069 103.725-94.334 174.19-94.334 2.757 0 5.496.071 8.227.177l13.406-11.363-13.406-18.658c-2.736-.093-5.476-.156-8.227-.156z" fill="#6ae1db"/><path d="m91.781 304.33 25.989 14.984c26.78-46.446 76.593-75.3 130.002-75.3 2.761 0 5.503.081 8.227.229l11.699-12.735-11.698-17.297c-2.728-.124-5.469-.196-8.227-.196-64.1 0-123.872 34.606-155.992 90.315z" fill="#fdd752"/><path d="m140.056 336.838 26.484 14.092c16.054-30.172 47.181-48.915 81.232-48.915 2.773 0 5.516.131 8.227.372l13.406-11.498-13.405-18.591c-2.72-.182-5.462-.284-8.227-.284-45.167.001-86.441 24.84-107.717 64.824z" fill="#fd465f"/></g><path d="m416.019 225.704c-42.995-42.994-99.55-67.492-160.019-69.534v30.022c110.856 4.337 199.708 95.858 199.708 207.758 0 0 29.941-6.219 29.822-9.313-2.296-60.061-26.774-116.194-69.511-158.933z" fill="#21c8c7"/><path d="m397.708 393.95h30c0-96.459-76.296-175.424-171.708-179.74v30.033c78.863 4.287 141.708 69.793 141.708 149.707z" fill="#f8bd3f"/><path d="m339.708 393.95h30c0-64.47-50.296-117.406-113.708-121.652v30.089c46.853 4.176 83.708 43.643 83.708 91.563z" fill="#ce0c51"/><path d="m144.64 314.822c-5.702-19.682-22.383-34.746-42.947-38.093-6.614-30.465-33.837-53.357-66.319-53.357-8.794 0-17.364 1.65-25.472 4.906l-9.902 3.78v149.624l30.492 7.621 164.682 13.313c4.6-8.699 6.992-18.526 6.919-28.421-.236-31.781-25.739-57.816-57.453-59.373z" fill="#f7fcff"/><g><g><path d="m211 381.682h-211c6.939 7.383 11.38 17.314 11.38 28.245 0 11.025-4.333 21.058-11.38 28.458l6.137 2.984h185.689l1.71 41.741h74.694l-12.23-56.428c0-24.853-20.147-45-45-45z" fill="#fff7e7"/></g><g><path d="m301 381.682h211c-6.939 7.383-11.38 17.314-11.38 28.245 0 11.025 4.333 21.058 11.38 28.458l-6.137 2.984h-185.689l-1.71 41.741h-62.464v-56.428c0-24.853 20.147-45 45-45z" fill="#ffe6ce"/></g><g><path d="m213.124 466.999v-28.614h-213.124v30h183.124v28.614h72.876l13.406-13.889-13.406-16.111z" fill="#b1532b"/><path d="m298.236 438.385v28.614h-42.236v30h72.236v-28.614h183.764v-30z" fill="#983424"/></g></g><g fill="#e0e6f5"><path d="m454.907 15.001h28.535v28.512h-28.535z" transform="matrix(-1 0 0 -1 938.349 58.514)"/><path d="m483.442 43.513h28.558v28.512h-28.558z" transform="matrix(-1 0 0 -1 995.442 115.537)"/><path d="m426.395 43.513h28.512v28.512h-28.512z" transform="matrix(-1 0 0 -1 881.302 115.537)"/><path d="m454.907 72.024h28.535v28.512h-28.535z" transform="matrix(-1 0 0 -1 938.349 172.561)"/><path d="m394.909 114.283h28.535v28.512h-28.535z" transform="matrix(-1 0 0 -1 818.353 257.078)"/></g></g></svg>