<svg viewBox="-11 0 512 512" xmlns="http://www.w3.org/2000/svg"><path d="m490 267c0 135.308594-109.691406 245-245 245s-245-109.691406-245-245 109.691406-245 245-245 245 109.691406 245 245zm0 0" fill="#02af8e"/><path d="m219.171875 510.644531v-97.644531h-140v34.328125c17.507813 16.109375 37.363281 29.703125 59 40.203125v-45.53125h22v54.90625c18.699219 6.902344 38.472656 11.585938 59 13.738281zm0 0" fill="#994334"/><path d="m95 413h-15.828125v34.328125c5.082031 4.675781 10.367187 9.132813 15.828125 13.371094zm0 0" fill="#87352a"/><path d="m409 449v-36h-140v97.824219c20.515625-1.996094 40.285156-6.519531 59-13.257813v-55.566406h22v46.40625c21.59375-10.257812 41.449219-23.582031 59-39.40625zm0 0" fill="#445ea0"/><path d="m284 413h-15v97.824219c5.046875-.492188 10.046875-1.136719 15-1.929688zm0 0" fill="#2e4c89"/><path d="m279.9375 237h-73.058594c-14.632812 10.683594-32.648437 17-52.109375 17h-11.195312c-19.464844 0-37.476563-6.316406-52.109375-17h-89.636719c-1.21875 9.972656-1.8476562 20.125-1.828125 30.429688.0078125 3.878906.117188 7.734374.300781 11.570312h69.871094v130c0 2.761719 2.238281 5 5 5h148c2.761719 0 5-2.238281 5-5v-130h20.128906l37.761719-37.761719c-2.105469-1.324219-4.144531-2.746093-6.125-4.238281zm0 0" fill="#293d7c"/><path d="m154.769531 254h-11.195312c-6.804688 0-13.429688-.773438-19.796875-2.230469 1.148437 13.019531 12.078125 23.230469 25.394531 23.230469 13.320313 0 24.246094-10.210938 25.394531-23.230469-6.367187 1.457031-12.992187 2.230469-19.796875 2.230469zm0 0" fill="#ffc987"/><path d="m139.386719 253.898438c-5.339844-.25-10.554688-.972657-15.609375-2.128907 1.148437 13.019531 12.074218 23.230469 25.394531 23.230469 2.671875 0 5.246094-.414062 7.664063-1.175781-8.976563-2.824219-15.804688-10.484375-17.449219-19.925781zm0 0" fill="#f4b978"/><path d="m234.304688 35.316406c-18.230469-21.597656-45.5-35.316406-75.976563-35.316406h-18.3125c-54.898437 0-99.40625 44.503906-99.40625 99.40625v29.640625c3.269531-2.296875 7.246094-3.65625 11.535156-3.65625h2.867188v-4.730469c0-1.507812 1.226562-2.734375 2.734375-2.734375h117.5625c1.128906 0 2.195312-.550781 2.851562-1.476562l11.414063-16.175781c.511719-.722657 1.34375-1.15625 2.230469-1.15625.886718 0 1.722656.433593 2.234374 1.15625l11.414063 16.175781c.652344.925781 1.71875 1.476562 2.847656 1.476562h26.007813zm0 0" fill="#ef8318"/><path d="m52.144531 125.390625h2.867188v-4.730469c0-1.507812 1.226562-2.734375 2.734375-2.734375h13.253906v-18.519531c0-52.871094 41.28125-96.097656 93.367188-99.21875-2-.1210938-4.011719-.1875-6.039063-.1875h-18.3125c-54.898437 0-99.40625 44.503906-99.40625 99.40625v29.640625c3.273437-2.296875 7.246094-3.65625 11.535156-3.65625zm0 0" fill="#db722c"/><path d="m55.011719 165.4375v-41.046875h-2.867188c-11.675781 0-21.144531 9.46875-21.144531 21.144531v16.171875c0 11.679688 9.46875 21.144531 21.144531 21.144531h4.589844c-1.125-5.628906-1.722656-11.453124-1.722656-17.414062zm0 0" fill="#ffe2b8"/><path d="m242.28125 181.855469c-11.109375 0-20.144531-9.039063-20.144531-20.148438v-16.167969c0-7.757812 4.550781-14.910156 11.59375-18.222656l.578125-.269531v-10.117187h-26.007813c-.808593 0-1.5625-.394532-2.03125-1.054688l-11.414062-16.175781c-.699219-.988281-1.839844-1.578125-3.050781-1.578125-1.210938 0-2.351563.589844-3.046876 1.578125l-11.417968 16.175781c-.464844.660156-1.222656 1.054688-2.03125 1.054688h-117.5625c-2.058594 0-3.734375 1.671874-3.734375 3.730468v44.78125c0 49.382813 40.175781 89.5625 89.5625 89.5625h11.195312c43.777344 0 80.316407-31.578125 88.046875-73.148437zm0 0" fill="#ffe2b8"/><path d="m69.683594 165.4375v-44.78125c0-2.054688 1.671875-3.730469 3.730468-3.730469h-15.667968c-2.058594 0-3.734375 1.675781-3.734375 3.730469v44.78125c0 49.386719 40.175781 89.5625 89.5625 89.5625h11.195312c.746094 0 1.492188-.011719 2.234375-.027344-48.351562-1.191406-87.320312-40.898437-87.320312-89.535156zm0 0" fill="#ffc987"/><path d="m114.34375 154.242188c0 6.871093-5.570312 12.441406-12.441406 12.441406-6.867188 0-12.4375-5.570313-12.4375-12.441406v-12.4375c0-6.871094 5.570312-12.4375 12.4375-12.4375 6.871094 0 12.441406 5.566406 12.441406 12.4375zm0 0" fill="#293d7c"/><path d="m208.878906 154.242188c0 6.871093-5.570312 12.441406-12.441406 12.441406-6.867188 0-12.4375-5.570313-12.4375-12.441406v-12.4375c0-6.871094 5.570312-12.4375 12.4375-12.4375 6.871094 0 12.441406 5.566406 12.441406 12.4375zm0 0" fill="#293d7c"/><path d="m149.171875 226.390625c-19.003906 0-34.460937-15.460937-34.460937-34.460937 0-2.609376 2.113281-4.722657 4.71875-4.722657h59.484374c2.605469 0 4.71875 2.113281 4.71875 4.722657 0 19-15.460937 34.460937-34.460937 34.460937zm0 0" fill="#ff9f60"/><path d="m130 191.929688c0-2.609376 2.117188-4.722657 4.722656-4.722657h-15.292968c-2.605469 0-4.722657 2.113281-4.722657 4.722657 0 19 15.460938 34.460937 34.464844 34.460937 2.625 0 5.183594-.304687 7.644531-.867187-15.332031-3.488282-26.816406-17.222657-26.816406-33.59375zm0 0" fill="#ff8b4a"/><path d="m154.144531 173.695312h-6.949219c-5.789062 0-10.5-4.710937-10.5-10.5v-17.660156c0-4.140625 3.359376-7.5 7.5-7.5 4.140626 0 7.5 3.359375 7.5 7.5v13.160156h2.449219c4.144531 0 7.5 3.359376 7.5 7.5 0 4.140626-3.355469 7.5-7.5 7.5zm0 0" fill="#ff9f60"/><path d="m242.28125 125.390625h2.867188v-14.871094c0-17.378906 14.140624-31.519531 31.523437-31.519531h36.714844c8.0625 0 15.738281 3.050781 21.613281 8.589844 1.171875 1.101562 2.699219 1.710937 4.308594 1.710937 1.605468 0 3.136718-.609375 4.304687-1.710937 5.875-5.539063 13.550781-8.589844 21.613281-8.589844h36.71875c17.378907 0 31.519532 14.140625 31.519532 31.523438v14.867187h2.867187c3.226563 0 6.269531.78125 8.976563 2.136719v-115.066406c-.003906-6.882813-5.582032-12.460938-12.460938-12.460938-5.378906 0-9.949218 3.414062-11.691406 8.191406-1.746094-4.777344-6.316406-8.191406-11.695312-8.191406-5.378907 0-9.945313 3.414062-11.691407 8.191406-1.746093-4.777344-6.3125-8.191406-11.691406-8.191406s-9.949219 3.414062-11.691406 8.191406c-1.746094-4.777344-6.316407-8.191406-11.695313-8.191406s-9.949218 3.414062-11.691406 8.191406c-1.746094-4.777344-6.316406-8.191406-11.695312-8.191406-5.378907 0-9.945313 3.414062-11.691407 8.191406-1.742187-4.777344-6.3125-8.191406-11.691406-8.191406s-9.949219 3.414062-11.695313 8.191406c-1.742187-4.777344-6.3125-8.191406-11.691406-8.191406s-9.945312 3.414062-11.691406 8.191406c-1.746094-4.777344-6.3125-8.191406-11.695312-8.191406-5.378907 0-9.945313 3.414062-11.691407 8.191406-1.742187-4.777344-6.3125-8.191406-11.691406-8.191406-6.882813 0-12.460937 5.578125-12.460937 12.460938v115.066406c2.710937-1.355469 5.75-2.136719 8.976562-2.136719zm0 0" fill="#a5683f"/><path d="m242.28125 125.390625h2.867188v-14.871094c0-12.875 7.765624-23.964843 18.851562-28.851562v-69.207031c0-5.605469 3.703125-10.347657 8.792969-11.910157-1.152344-.355469-2.371094-.550781-3.644531-.550781-5.378907 0-9.945313 3.414062-11.691407 8.191406-1.742187-4.777344-6.3125-8.191406-11.691406-8.191406-6.882813 0-12.460937 5.578125-12.460937 12.460938v115.066406c2.710937-1.355469 5.75-2.136719 8.976562-2.136719zm0 0" fill="#8e5935"/><path d="m488.167969 237h-63.4375c.101562.652344.167969 1.316406.167969 2v8c0 7.113281-5.785157 12.902344-12.898438 12.902344h-24c-5.992188 0-11.28125-4.257813-12.570312-10.117188l-.25-1.132812c-9.453126 3.453125-19.644532 5.347656-30.273438 5.347656h-11.195312c-16.96875 0-32.832032-4.800781-46.316407-13.105469-.011719.007813-.023437.019531-.035156.03125-.183594-.148437-.371094-.285156-.570313-.410156l-58.617187 58.617187v59.394532l32.136719-26.867188v77.339844c0 2.761719 2.238281 5 5 5h148c2.761718 0 5-2.238281 5-5v-130h71.402344c.199218-4.117188.296874-8.261719.289062-12.429688-.019531-10.011718-.648438-19.875-1.832031-29.570312zm0 0" fill="#fe3745"/><path d="m353.621094 377.816406c-1.65625 0-3-1.34375-3-3v-25.597656h-22.140625v25.597656c0 1.65625-1.34375 3-3 3h-15.019531c-1.65625 0-3-1.34375-3-3v-70.304687c0-5.796875 4.714843-10.511719 10.507812-10.511719h43.160156c5.792969 0 10.507813 4.714844 10.507813 10.511719v70.304687c0 1.65625-1.34375 3-3 3zm-25.144532-62.796875.003907 13.179688h22.140625v-13.179688zm0 0" fill="#fff"/><path d="m322.824219 374.816406v-70.304687c0-5.796875 4.714843-10.511719 10.507812-10.511719h-15.359375c-5.796875 0-10.511718 4.714844-10.511718 10.511719v70.304687c0 1.65625 1.34375 3 3 3h15.019531c.058593 0 .113281-.015625.171875-.019531-1.574219-.089844-2.828125-1.382813-2.828125-2.980469zm0 0" fill="#eef6ff"/><path d="m412 225h-1.609375c-9.800781 10.765625-22.214844 19.109375-36.226563 24.027344.984376 6.769531 6.796876 11.972656 13.835938 11.972656h24c7.730469 0 14-6.269531 14-14v-8c0-7.730469-6.269531-14-14-14zm0 0" fill="#ffc987"/><path d="m390 247v-5.371094c-4.988281 2.964844-10.285156 5.449219-15.835938 7.398438.984376 6.769531 6.796876 11.972656 13.835938 11.972656h16c-7.730469 0-14-6.269531-14-14zm0 0" fill="#f4b978"/><path d="m344.90625 254h-11.195312c-6.804688 0-13.429688-.773438-19.796876-2.230469 1.148438 13.019531 12.074219 23.230469 25.394532 23.230469 13.316406 0 24.246094-10.210938 25.394531-23.230469-6.367187 1.457031-12.996094 2.230469-19.796875 2.230469zm0 0" fill="#dd9f68"/><path d="m329.386719 253.894531c-5.292969-.257812-10.464844-.976562-15.472657-2.125 1.148438 13.019531 12.074219 23.230469 25.394532 23.230469 2.644531 0 5.195312-.402344 7.59375-1.152344-9.011719-2.808594-15.871094-10.488281-17.515625-19.953125zm0 0" fill="#c48357"/><g fill="#f4b978"><path d="m245.148438 165.4375v-41.046875h-2.867188c-11.679688 0-21.144531 9.46875-21.144531 21.144531v16.171875c0 11.679688 9.46875 21.144531 21.144531 21.144531h4.589844c-1.125-5.628906-1.722656-11.453124-1.722656-17.414062zm0 0"/><path d="m436.332031 124.390625h-2.867187v41.046875c0 5.960938-.59375 11.785156-1.722656 17.414062h4.589843c11.675781 0 21.144531-9.464843 21.144531-21.144531v-16.171875c0-11.675781-9.46875-21.144531-21.144531-21.144531zm0 0"/><path d="m401.945312 78h-36.71875c-8.316406 0-16.238281 3.148438-22.296874 8.863281-1.019532.957031-2.320313 1.4375-3.621094 1.4375-1.304688 0-2.605469-.480469-3.621094-1.4375-6.0625-5.714843-13.980469-8.863281-22.300781-8.863281h-36.714844c-17.933594 0-32.523437 14.589844-32.523437 32.519531v54.917969c0 49.386719 40.175781 89.5625 89.5625 89.5625h11.195312c49.382812 0 89.558594-40.175781 89.558594-89.5625v-54.917969c0-17.929687-14.589844-32.519531-32.519532-32.519531zm0 0"/></g><path d="m259.683594 165.4375v-54.917969c0-17.929687 14.589844-32.519531 32.523437-32.519531h-15.535156c-17.933594 0-32.523437 14.589844-32.523437 32.519531v54.917969c0 49.386719 40.175781 89.5625 89.5625 89.5625h11.195312c.722656 0 1.445312-.011719 2.167969-.027344-48.386719-1.15625-87.390625-40.875-87.390625-89.535156zm0 0" fill="#dd9f68"/><path d="m304.476562 154.242188c0 6.871093-5.566406 12.441406-12.4375 12.441406-6.871093 0-12.441406-5.570313-12.441406-12.441406v-12.4375c0-6.871094 5.570313-12.4375 12.441406-12.4375 6.871094 0 12.4375 5.566406 12.4375 12.4375zm0 0" fill="#994334"/><path d="m399.015625 154.242188c0 6.871093-5.570313 12.441406-12.441406 12.441406-6.867188 0-12.4375-5.570313-12.4375-12.441406v-12.4375c0-6.871094 5.570312-12.4375 12.4375-12.4375 6.871093 0 12.441406 5.566406 12.441406 12.4375zm0 0" fill="#994334"/><path d="m339.308594 226.390625c-19.003906 0-34.464844-15.460937-34.464844-34.460937 0-2.609376 2.117188-4.722657 4.722656-4.722657h59.484375c2.605469 0 4.71875 2.113281 4.71875 4.722657 0 19-15.460937 34.460937-34.460937 34.460937zm0 0" fill="#ff9f60"/><path d="m320 191.929688c0-2.609376 2.117188-4.722657 4.722656-4.722657h-15.15625c-2.605468 0-4.722656 2.113281-4.722656 4.722657 0 19 15.460938 34.460937 34.460938 34.460937 2.605468 0 5.140624-.300781 7.578124-.851563-15.367187-3.460937-26.882812-17.214843-26.882812-33.609374zm0 0" fill="#ff8b4a"/><path d="m344.28125 173.695312h-6.949219c-5.789062 0-10.5-4.710937-10.5-10.5v-17.660156c0-4.140625 3.355469-7.5 7.5-7.5 4.140625 0 7.5 3.359375 7.5 7.5v13.160156h2.449219c4.144531 0 7.5 3.359376 7.5 7.5 0 4.140626-3.355469 7.5-7.5 7.5zm0 0" fill="#c48357"/><path d="m307.296875 121.496094c-1.917969 0-3.839844-.730469-5.300781-2.195313-2.988282-2.988281-6.960938-4.636719-11.1875-4.636719-4.226563 0-8.199219 1.648438-11.1875 4.636719-2.929688 2.925781-7.679688 2.925781-10.605469 0-2.929687-2.929687-2.929687-7.679687 0-10.609375 12.015625-12.015625 31.570313-12.015625 43.585937 0 2.929688 2.929688 2.929688 7.679688 0 10.609375-1.464843 1.464844-3.386718 2.195313-5.304687 2.195313zm0 0" fill="#a5683f"/><path d="m404.296875 121.496094c-1.917969 0-3.839844-.730469-5.300781-2.195313-2.988282-2.988281-6.960938-4.636719-11.1875-4.636719-4.226563 0-8.199219 1.648438-11.1875 4.636719-2.929688 2.925781-7.679688 2.925781-10.605469 0-2.929687-2.929687-2.929687-7.679687 0-10.609375 12.015625-12.015625 31.570313-12.015625 43.585937 0 2.929688 2.929688 2.929688 7.679688 0 10.609375-1.464843 1.464844-3.386718 2.195313-5.304687 2.195313zm0 0" fill="#a5683f"/><path d="m70.171875 313h158v22h-158zm0 0" fill="#445ea0"/><path d="m70.171875 353h158v22h-158zm0 0" fill="#fff"/></svg>