<svg id="Capa_1" enable-background="new 0 0 496.321 496.321" height="512" viewBox="0 0 496.321 496.321" width="512" xmlns="http://www.w3.org/2000/svg"><g><path d="m345.79 71.259-1.33 94.14c-.93 10.72-3.53 21.22-7.7 31.13l-1.81 4.29c-5.35 12.7-8.1 26.34-8.1 40.12v98.08l4.63 121.2c.2 5.31-4.05 9.73-9.37 9.73h-112.44c-5.32 0-9.57-4.42-9.37-9.73l4.63-121.2v-227.47l-14.19-52.9 1-8.27c2.22-14.77 13.76-26.44 28.58-23.57l5.28 1.02 14.95 2.9 24.85 4.81 14.95 2.9 23.86 4.62 14.69 2.85.26.05 7.18 1.39c11.42 2.21 19.61 12.28 19.45 23.91z" fill="#f0bdb1"/><path d="m345.79 71.258-1.33 94.14c-.93 10.72-3.53 21.22-7.7 31.13l-1.81 4.29c-5.35 12.7-8.1 26.34-8.1 40.12v98.08l4.63 121.2c.2 5.31-4.05 9.73-9.37 9.73h-22.12c5.32 0 9.57-4.42 9.37-9.73l-4.63-121.2v-98.08c0-13.78 2.75-27.42 8.1-40.12l1.81-4.29c4.17-9.91 6.77-20.41 7.7-31.13l1.58-96.86s.16-11.9-5.02-22.63l7.44 1.44c11.42 2.21 19.61 12.28 19.45 23.91z" fill="#eaa998"/><path d="m124.56 170.209.15 8.24 3.246 58.613-3.396 53.581v179.306h-107.61v-127.7c0-12.17-2.43-24.21-7.15-35.42l-1.6-3.78c-3.68-8.75-5.97-18.02-6.8-27.48l-1.38-73.84-.02-19.87c-.01-10.5 7.72-19.4 18.11-20.87l4.02-.57 15-2.12 16.2-2.28 15-2.12 17.02-2.4 15-2.12.21-.03c12.67-1.78 24 8.06 24 20.86z" fill="#ffcebf"/><path d="m164.22 261.588-28.88 46.28c-7 9.57-10.78 21.12-10.78 32.97v38.53l-15.95-34.79-43.05-93.91 52.99-13c4.4-1.36 7.4-5.43 7.4-10.03v-9.71c0-4.18-2.27-7.88-5.73-9.84-1.16-.65-2.45-1.11-3.84-1.33l-10.69-.57-21.82-2.77c-7.16-1.12-12.21-7.3-12.21-14.24 0-1.06.11-2.14.36-3.22 1.61-7.08 8.24-11.86 15.47-11.15l12.16 1.19 38.14 4.22c10.93 1.19 20.03 8.91 22.99 19.49l8.9 31.82c2.89 10.33.88 21.41-5.46 30.06z" fill="#ffcebf"/><path d="m164.22 261.589-28.88 46.28c-7 9.57-10.78 21.12-10.78 32.97v38.53l-24.34-34.79 1.27-15.53c1.64-7.61 4.86-14.83 9.51-21.18l13.56-18.52 15.32-27.76c6.34-8.65 8.35-19.73 5.46-30.06l-5.48-19.59-3.42-12.23c-2.37-8.47-3.75-15.12-11.72-18.03l-.01-3.23 13.08 1.77c.65.07 1.29.17 1.93.28 10.06 1.84 18.28 9.26 21.06 19.21l8.9 31.82c2.89 10.33.88 21.41-5.46 30.06z" fill="#f0bdb1"/><path d="m369.98 379.369v-38.53c0-11.85-3.77-23.4-10.78-32.97l-33.88-46.28c-6.33-8.65-8.35-19.74-5.46-30.06l8.9-31.82c2.3-8.2 8.28-14.68 15.94-17.73 2.22-.89 4.59-1.49 7.05-1.76l7.95-.78 47.36-4.63c7.23-.71 15.85 4.07 17.47 11.15.19.85.29 1.7.29 2.54 0 7.21-6.74 13.76-14.14 14.92l-22.51 3.34c-5.51.85-9.57 5.59-9.57 11.17v9.71c0 4.6 3 8.67 7.4 10.03l44.98 13z" fill="#ffdfcf"/><g><path d="m359.7 179.439v50.45c0 4.14-3.36 7.5-7.5 7.5s-7.5-3.36-7.5-7.5v-47.91c2.22-.89 4.59-1.49 7.05-1.76z" fill="#ffcebf"/></g><path d="m204.93 282.999v-43.65c0-13.43-4.28-26.51-12.21-37.35l-38.39-52.43c-7.18-9.81-9.46-22.36-6.18-34.06l10.08-36.05c2.55-9.1 9.1-16.32 17.52-19.86 2.68-1.14 5.54-1.89 8.53-2.22l6.7-.66 55.95-5.47c8.19-.8 15.7 4.61 17.53 12.63.28 1.22.41 2.44.41 3.64 0 7.87-5.72 14.87-13.84 16.14l-24.37 3.78c-6.23.97-10.84 6.34-10.84 12.66v11c0 5.22 3.4 9.83 8.39 11.37l47.56 14.73z" fill="#f0bdb1"/><path d="m16.95 387.148c-6.536 10.529-10 22.675-10 35.068l-1.591 37.967c-.223 5.326 4.034 9.765 9.364 9.765h112.063c5.33 0 9.588-4.44 9.364-9.765l-1.59-37.906c0-11.706-3.091-23.204-8.959-33.333l-1.041-1.796-53.805-7.78z" fill="#edf4ff"/><path d="m134.56 422.277c0-11.706-3.091-23.205-8.959-33.333l-1.041-1.796h-24.344l1.041 1.796c5.869 10.128 8.959 21.627 8.959 33.333l1.59 37.906c.223 5.326-4.034 9.765-9.364 9.765h24.344c5.33 0 9.588-4.439 9.364-9.765z" fill="#dbeaff"/><path d="m16.95 344.578h107.61v42.57h-107.61z" fill="#c3aff0"/><path d="m100.216 344.578h24.344v42.57h-24.344z" fill="#aa96e6"/><path d="m204.93 304.478h121.92v34.54h-121.92z" fill="#e5646e"/><path d="m304.727 304.478h22.123v34.54h-22.123z" fill="#db4655"/><path d="m496.32 181.859-1.18 93.71c-.82 9.46-3.12 18.73-6.8 27.48l-1.59 3.78c-4.72 11.21-7.15 23.25-7.15 35.42l3.7 118.03c.16 5.29-4.08 9.67-9.37 9.67h-98.29c-5.29 0-9.53-4.37-9.37-9.65l3.71-126.43-10.28-103.98-1.72-57.73c0-12.67 11.05-22.52 23.64-21.07l8.26.8 15 1.45 19.08 1.85 15 1.45 18.22 1.76 12.19 1.18 2.81.32 5.36.62c9.8 1.12 17.37 8.8 18.6 18.32.13.99.19 2 .18 3.02z" fill="#ffdfcf"/><path d="m496.14 178.839-1 96.73c-.82 9.46-3.12 18.73-6.8 27.48l-1.59 3.78c-4.72 11.21-7.15 23.25-7.15 35.42l3.7 118.03c.16 5.29-4.08 9.67-9.37 9.67h-23.35c5.29 0 9.54-4.38 9.37-9.67l-3.7-118.03c0-12.17 2.43-24.21 7.15-35.42l1.6-3.78c3.68-8.75 5.97-18.02 6.8-27.48l.3-76.36.08-21.88.01-2.59s0-.01-.01-.03c-.09-.72-1.76-12.18-8.12-15.64l8.12.87 5.36.58c9.8 1.12 17.37 8.8 18.6 18.32z" fill="#ffcebf"/><g><path d="m190.98 56.719-3.73 57.03c-.26 3.97-3.56 7.02-7.48 7.02-.16 0-.33-.01-.5-.02-4.13-.27-7.26-3.84-6.99-7.97l3.47-53.18c2.68-1.14 5.54-1.89 8.53-2.22z" fill="#eaa998"/></g><g><g><path d="m240.55 30.729-.6 37.34c-.07 4.1-3.41 7.38-7.5 7.38h-.12c-4.15-.07-7.45-3.48-7.38-7.62l.65-40z" fill="#eaa998"/></g><g><path d="m280.35 38.439-.58 33.64c-.07 4.1-3.42 7.37-7.5 7.37h-.13c-4.14-.07-7.44-3.49-7.37-7.63l.63-36.28z" fill="#eaa998"/></g><g><path d="m319.16 45.959-.57 32.12c-.07 4.1-3.42 7.37-7.5 7.37h-.13c-4.14-.08-7.44-3.49-7.37-7.63l.62-34.76 14.69 2.85z" fill="#eaa998"/></g></g><g><g><path d="m404.88 153.339v34.02c0 4.14-3.36 7.5-7.5 7.5s-7.5-3.36-7.5-7.5v-35.47z" fill="#f0bdb1"/></g><g><path d="m438.96 156.639v37.02c0 4.14-3.36 7.5-7.5 7.5s-7.5-3.36-7.5-7.5v-38.47z" fill="#f0bdb1"/></g><g><path d="m472.18 159.899v38.24c0 4.14-3.36 7.5-7.5 7.5s-7.5-3.36-7.5-7.5v-39.74l12.19 1.18z" fill="#f0bdb1"/></g><g><path d="m472.18 159.899v14.81c-.09-.72-1.76-12.18-8.12-15.64l5.31.51z" fill="#eaa998"/><path d="m472.1 199.209.08-21.88v20.81c0 .36-.03.72-.08 1.07z" fill="#f0bdb1"/></g></g><g><path d="m139.95 231.039c.02 4.14-3.32 7.51-7.47 7.53h-.03c-4.13 0-7.48-3.34-7.5-7.47l-.23-49.42-.01-3.23 13.08 1.77c.65.07 1.29.17 1.93.28l.14 31.44z" fill="#f0bdb1"/></g><g><path d="m139.86 211.939-3.42-12.23c-2.37-8.47-3.75-15.12-11.72-18.03l-.01-3.23 13.08 1.77c.65.07 1.29.17 1.93.28z" fill="#eaa998"/></g><g><g><path d="m100.35 149.379v34.94c0 4.14-3.36 7.5-7.5 7.5s-7.5-3.36-7.5-7.5v-32.82z" fill="#f0bdb1"/></g><g><path d="m68.33 153.899v38.5c0 4.14-3.36 7.5-7.5 7.5s-7.5-3.36-7.5-7.5v-36.38z" fill="#f0bdb1"/></g><g><path d="m37.13 158.299v34.84c0 4.14-3.36 7.5-7.5 7.5s-7.5-3.36-7.5-7.5v-32.72z" fill="#f0bdb1"/></g></g></g></svg>