<?xml version="1.0" encoding="utf-8"?>
<!-- Generator: Adobe Illustrator 19.0.0, SVG Export Plug-In . SVG Version: 6.00 Build 0)  -->
<svg version="1.1" id="Capa_1" xmlns="http://www.w3.org/2000/svg" xmlns:xlink="http://www.w3.org/1999/xlink" x="0px" y="0px"
	 viewBox="-223 25 512 512" style="enable-background:new -223 25 512 512;" xml:space="preserve">
<style type="text/css">
	.st0{fill:#FE3745;}
	.st1{fill:#D62E3A;}
	.st2{fill:#E8899E;}
	.st3{fill:#4E5660;}
</style>
<path class="st0" d="M-222.9,262.6c4.7,133.1,121.8,218.9,234.9,269.8c13.4,6,28.7,6,42.1,0c113.1-51,230.2-136.7,234.9-269.8
	c2.9-83.1-61.7-153.8-144.8-154.5c-44.3-0.4-84,18.9-111.1,49.7c-27.1-30.7-66.8-50-111.1-49.7
	C-161.2,108.8-225.8,179.6-222.9,262.6L-222.9,262.6z"/>
<path class="st1" d="M12,532.5c13.4,6,28.7,6,42.1,0c13.8-6.2,27.7-13,41.4-20.3C-161.5,492.1-185.8,254.9-107,111.3
	c-68.7,14.6-118.5,78.2-115.9,151.3C-218.2,395.7-101.1,481.5,12,532.5L12,532.5z"/>
<path class="st0" d="M-30.4,444.9c-5.5,0-11-0.1-16.6-0.4c-14.4-0.7-25.5-12.9-24.8-27.3c0.7-14.4,12.9-25.5,27.3-24.8
	c48.6,2.3,94.4-7.3,136.1-28.7c39.1-20,60.3-43.3,64.1-47.7c9.4-10.9,25.9-12.1,36.8-2.7c10.9,9.4,12.1,25.9,2.7,36.8
	C186.5,360.1,109.1,444.9-30.4,444.9L-30.4,444.9z"/>
<path class="st1" d="M-30.4,452.4c-5.6,0-11.3-0.1-17-0.4c-18.5-0.9-32.9-16.7-32-35.2c0.9-18.5,16.7-32.8,35.2-32
	c47.3,2.3,91.8-7.1,132.3-27.9c37.9-19.4,58.2-41.7,61.9-45.9c2.7-3.1,7.4-3.5,10.6-0.8c3.1,2.7,3.5,7.4,0.8,10.6
	c-4,4.6-26,28.8-66.4,49.5c-42.8,22-89.9,31.9-139.9,29.5c-10.2-0.5-19,7.5-19.5,17.7c-0.5,10.3,7.5,19,17.7,19.5
	c5.4,0.3,10.9,0.4,16.3,0.4c136.2,0,211.7-82.8,219.9-92.2c2.7-3.1,7.4-3.5,10.6-0.8c3.1,2.7,3.5,7.4,0.8,10.6
	C192.3,365,112.5,452.4-30.4,452.4L-30.4,452.4z"/>
<path class="st0" d="M106.8,423.7c-54.3,0-101-7.8-142.7-23.9c-36-13.9-62-31.5-82.8-45.7c-1.8-1.2-3.6-2.4-5.3-3.6
	c-11.9-8.1-15.1-24.3-7-36.3c8.1-11.9,24.3-15.1,36.3-7c1.8,1.2,3.6,2.4,5.4,3.7c39.7,27,89,60.5,196.2,60.5
	c14.4,0,26.1,11.7,26.1,26.1S121.2,423.7,106.8,423.7L106.8,423.7z"/>
<path class="st1" d="M106.8,431.2c-55.3,0-102.8-8-145.4-24.4c-36.8-14.2-63.2-32.1-84.4-46.5c-1.8-1.2-3.6-2.4-5.3-3.6
	c-3.4-2.3-4.3-7-2-10.4c2.3-3.4,7-4.3,10.4-2c1.8,1.2,3.5,2.4,5.3,3.6c20.5,14,46.1,31.4,81.3,44.9c40.8,15.7,86.6,23.4,140,23.4
	c10.3,0,18.6-8.4,18.6-18.6s-8.4-18.6-18.6-18.6c-109.5,0-159.9-34.3-200.4-61.8l-0.2-0.1c-1.8-1.2-3.5-2.4-5.3-3.6
	c-3.4-2.3-4.3-7-2-10.4s7-4.3,10.4-2c1.7,1.2,3.5,2.4,5.3,3.6l0.2,0.1c38.8,26.4,87.1,59.2,191.9,59.2c18.5,0,33.6,15.1,33.6,33.6
	S125.3,431.2,106.8,431.2L106.8,431.2z"/>
<path class="st1" d="M123.7,74.9c1.5,43,39.3,70.7,75.8,87.1c4.3,1.9,9.3,1.9,13.6,0c36.5-16.5,74.3-44.1,75.8-87.1
	c0.9-26.8-19.9-49.7-46.8-49.9c-14.3-0.1-27.1,6.1-35.9,16c-8.7-9.9-21.6-16.2-35.9-16C143.7,25.2,122.8,48.1,123.7,74.9z"/>
<path class="st2" d="M-32.9,267.9c-0.1,17-17.4,30.7-38.7,30.6s-38.5-13.9-38.5-30.8s17.4-30.7,38.7-30.6
	C-50.1,237.2-32.9,251-32.9,267.9z"/>
<path class="st2" d="M98.9,268.3c-0.1,17,17.2,30.8,38.5,30.8c21.3,0.1,38.6-13.6,38.7-30.6s-17.2-30.8-38.5-30.8
	S99,251.4,98.9,268.3L98.9,268.3z"/>
<g>
	<path class="st3" d="M64.2,244.6c0.1-19.2-13.9-21.1-31-21.1S2,225.2,2,244.4c-0.1,19.2,13.8,34.8,31,34.9
		C50.1,279.4,64.1,263.9,64.2,244.6z"/>
	<path class="st3" d="M-30.6,242C-30.6,242-30.6,242-30.6,242c-4.2,0-7.5-3.4-7.5-7.5c0-2.9-1.1-5.6-3.2-7.7c-2-2.1-4.8-3.2-7.7-3.2
		c0,0,0,0,0,0c-6,0-10.8,4.8-10.9,10.8c0,4.1-3.4,7.5-7.5,7.5c0,0,0,0,0,0c-4.1,0-7.5-3.4-7.5-7.5c0-14.2,11.6-25.8,25.9-25.8h0.1
		c6.9,0,13.4,2.7,18.3,7.6s7.5,11.4,7.5,18.3C-23.1,238.7-26.4,242-30.6,242L-30.6,242z"/>
	<path class="st3" d="M133.5,242.5C133.5,242.5,133.5,242.5,133.5,242.5c-4.2,0-7.5-3.4-7.5-7.5c0-2.9-1.1-5.6-3.2-7.7
		c-2-2.1-4.8-3.2-7.7-3.2c-2.9,0-5.6,1.1-7.7,3.2c-2.1,2-3.2,4.8-3.2,7.7c0,4.1-3.4,7.5-7.5,7.5c0,0,0,0,0,0c-4.1,0-7.5-3.4-7.5-7.5
		c0-6.9,2.7-13.4,7.6-18.3c4.9-4.8,11.3-7.5,18.2-7.5h0.1c6.9,0,13.4,2.7,18.3,7.6c4.9,4.9,7.5,11.4,7.5,18.3
		C141,239.2,137.6,242.5,133.5,242.5L133.5,242.5z"/>
</g>
</svg>
