<?xml version="1.0" encoding="utf-8"?>
<!-- Generator: Adobe Illustrator 19.0.0, SVG Export Plug-In . SVG Version: 6.00 Build 0)  -->
<svg version="1.1" id="Layer_1" xmlns="http://www.w3.org/2000/svg" xmlns:xlink="http://www.w3.org/1999/xlink" x="0px" y="0px"
	 viewBox="-246 48 466.1 466" style="enable-background:new -246 48 466.1 466;" xml:space="preserve">
<style type="text/css">
	.st0{fill:#EBEBEB;}
	.st1{fill:#C9DFFF;}
	.st2{fill:#FFB41F;}
	.st3{fill:#1CC8EB;}
	.st4{fill:#9E9E9E;}
	.st5{fill:#FFAA00;}
	.st6{fill:#F7FCFF;}
	.st7{fill:#FFF7E7;}
	.st8{fill:#FFE6CE;}
	.st9{fill:#B1532B;}
	.st10{fill:#983424;}
</style>
<path class="st0" d="M-51.9,488.3c0,13.3,10.7,24,24,24h32c13.3,0,24-10.7,24-24v-48h-80V488.3z"/>
<path class="st1" d="M-88.1,319.6c-7-4.5-13.6-9.6-19.7-15.3c-5.2,20.1-25,32.8-45.4,29.3c-20.5-3.5-34.8-22.1-33-42.8
	s19.1-36.5,39.8-36.5c1.2,0,2.4,0.3,3.6,0.4c-7.6-17.8-11.5-37-11.5-56.4h-10.2l-5.5,26.3c-0.6,2.6-2.4,4.8-4.9,5.8
	c-2.5,1-5.3,0.7-7.5-0.8l-22.1-15.2l-24,24l15.2,22.1c1.5,2.2,1.8,5,0.8,7.5c-1,2.5-3.2,4.3-5.8,4.9l-26.3,5.5v32l26.3,5.5
	c2.6,0.6,4.8,2.4,5.8,4.9c1,2.5,0.7,5.3-0.8,7.5l-15.2,22.1l24,24l22.1-15.2c2.2-1.5,5-1.8,7.5-0.8c2.5,1,4.3,3.2,4.9,5.8l5.5,26.3
	h32l5.5-26.3c0.6-2.6,2.4-4.8,4.9-5.8c2.5-1,5.3-0.7,7.5,0.8l22.1,15.2l25.1-25.1C-70,337-77.5,326.3-88.1,319.6z"/>
<path class="st2" d="M132.1,232.3c0-69-49-128.4-116.8-141.4s-135.3,23.9-160.9,88s-2.1,137.4,56,174.6
	c13.3,8.3,21.5,22.7,21.7,38.4v32.3c0,13.3,10.7,24,24,24h64c13.3,0,24-10.7,24-24v-31.7c0.2-16,8.6-30.9,22.2-39.4
	C107.3,326.8,132.1,281.2,132.1,232.3z"/>
<path class="st3" d="M181.6,147.7l25.2-18.9L178,90.4l-25.2,18.9c-5.2,3.9-12.2,4.3-17.7,1s-8.6-9.6-7.7-16l4.4-31.1l-47.5-6.8
	l-4.4,31.1C79,93.8,74.3,99.1,68,100.7c-6.3,1.6-12.9-0.7-16.8-5.9L32.4,69.6L-6,98.4l18.9,25.2c3.9,5.2,4.3,12.2,1,17.7
	s-9.6,8.6-16,7.7l-31.1-4.4l-6.8,47.5l31.1,4.4c6.4,0.9,11.6,5.6,13.2,11.9s-0.7,12.9-5.9,16.8L-26.8,244L2,282.4l25.1-18.9
	c5.2-3.9,12.2-4.3,17.8-1c5.6,3.3,8.6,9.6,7.7,16l-4.5,31.1l47.5,6.8l4.5-31.1c0.9-6.4,5.6-11.6,11.9-13.2
	c6.3-1.6,12.9,0.7,16.8,5.9l18.9,25.1l38.4-28.8l-18.9-25.1c-3.9-5.2-4.3-12.2-1-17.8c3.3-5.6,9.6-8.6,16-7.7l31.1,4.4l6.8-47.5
	l-31.1-4.4c-6.4-0.9-11.6-5.6-13.2-11.9C174.2,158.2,176.5,151.6,181.6,147.7z M90,242.4c-30.9,0-56-25.1-56-56
	c0-30.9,25.1-56,56-56s56,25.1,56,56C146,217.3,120.9,242.4,90,242.4z"/>
<path class="st4" d="M-51.9,464.3h80v16h-80V464.3z"/>
<g>
	<path class="st5" d="M-19.9,400.3h16v24h-16V400.3z"/>
	<path class="st5" d="M-3.9,384.3h-16c0-21.2-13.1-40.1-32.8-47.7c-39.4-15.4-66.7-51.6-70.7-93.7s16.1-82.8,51.8-105.4l8.5,13.5
		c-30.7,19.3-47.9,54.2-44.4,90.3c3.4,36.1,26.9,67.2,60.6,80.4C-21,331.7-3.9,356.6-3.9,384.3z"/>
	<path class="st5" d="M-238.1,182.6l48.5-12.1c4.3-1.1,8.6,1.5,9.7,5.8s-1.5,8.6-5.8,9.7l-48.5,12.1c-4.3,1.1-8.6-1.5-9.7-5.8
		S-242.4,183.7-238.1,182.6z"/>
	<path class="st5" d="M-227.9,96.3c2.6-3.6,7.6-4.4,11.2-1.9l43,30.7c3.6,2.6,4.4,7.6,1.9,11.2s-7.6,4.4-11.2,1.9l-43-30.7
		C-229.6,104.9-230.5,99.9-227.9,96.3z"/>
	<path class="st5" d="M-156.3,48.3c4.3-1.1,8.6,1.5,9.7,5.8l12.4,48.5c1.1,4.3-1.5,8.6-5.8,9.7s-8.6-1.5-9.7-5.8L-162,58
		C-163.1,53.8-160.5,49.4-156.3,48.3z"/>
</g>
<path class="st6" d="M-94.4,401.9c-5.2-17.2-20.3-30.4-38.9-33.3c-6-26.7-30.6-46.7-60-46.7c-8,0-15.7,1.4-23.1,4.3l-9,3.3v130.9
	l27.6,6.7l149.1,11.6c4.2-7.6,6.3-16.2,6.3-24.9C-42.6,426.1-65.7,403.3-94.4,401.9L-94.4,401.9z"/>
<g>
	<g>
		<path class="st7" d="M-52.6,413.9h-191c6.3,6.5,10.3,15.1,10.3,24.7c0,9.6-3.9,18.4-10.3,24.9l5.6,2.6H-70l1.5,36.5h67.6
			l-11.1-49.4C-11.9,431.5-30.1,413.9-52.6,413.9L-52.6,413.9z"/>
	</g>
	<g>
		<path class="st8" d="M28.8,413.9h191c-6.3,6.5-10.3,15.1-10.3,24.7c0,9.6,3.9,18.4,10.3,24.9l-5.6,2.6H46.2l-1.5,36.5h-56.5v-49.4
			C-11.9,431.5,6.3,413.9,28.8,413.9L28.8,413.9z"/>
	</g>
	<g>
		<path class="st9" d="M-50.7,488.5v-25h-192.9v26.2h165.8v25h66l12.1-12.2l-12.1-14.1H-50.7z"/>
		<path class="st10" d="M26.3,463.5v25h-38.2v26.2h65.4v-25h166.3v-26.2H26.3z"/>
	</g>
</g>
</svg>
