<?xml version="1.0" encoding="UTF-8" standalone="no"?>
<svg
   xmlns:dc="http://purl.org/dc/elements/1.1/"
   xmlns:cc="http://creativecommons.org/ns#"
   xmlns:rdf="http://www.w3.org/1999/02/22-rdf-syntax-ns#"
   xmlns:svg="http://www.w3.org/2000/svg"
   xmlns="http://www.w3.org/2000/svg"
   xmlns:sodipodi="http://sodipodi.sourceforge.net/DTD/sodipodi-0.dtd"
   xmlns:inkscape="http://www.inkscape.org/namespaces/inkscape"
   version="1.1"
   id="Capa_1"
   x="0px"
   y="0px"
   viewBox="0 0 512.002 512.002"
   style="enable-background:new 0 0 512.002 512.002;"
   xml:space="preserve"
   sodipodi:docname="leider.svg"
   inkscape:version="1.0.2-2 (e86c870879, 2021-01-15)"><metadata
   id="metadata206"><rdf:RDF><cc:Work
       rdf:about=""><dc:format>image/svg+xml</dc:format><dc:type
         rdf:resource="http://purl.org/dc/dcmitype/StillImage" /></cc:Work></rdf:RDF></metadata><defs
   id="defs204" /><sodipodi:namedview
   pagecolor="#ffffff"
   bordercolor="#666666"
   borderopacity="1"
   objecttolerance="10"
   gridtolerance="10"
   guidetolerance="10"
   inkscape:pageopacity="0"
   inkscape:pageshadow="2"
   inkscape:window-width="1920"
   inkscape:window-height="1017"
   id="namedview202"
   showgrid="false"
   inkscape:zoom="0.70710678"
   inkscape:cx="-263.23434"
   inkscape:cy="381.65728"
   inkscape:window-x="1912"
   inkscape:window-y="-8"
   inkscape:window-maximized="1"
   inkscape:current-layer="Capa_1" />
<g
   id="g113"
   transform="translate(56.568542)">
	<path
   style="fill:#f7b546"
   d="m 278.055,258.295 v 8.292 c 0.009,14.644 -9.959,27.417 -24.171,30.963 l -9.88,2.47 -1.235,0.265 v -58.398 c 6.854,-2.814 13.223,-6.687 18.878,-11.468 10.153,5.593 16.452,16.285 16.408,27.876 z"
   id="path109" />
	<path
   style="fill:#f7b546"
   d="m 172.197,241.887 v 58.398 l -1.235,-0.265 -9.88,-2.47 c -14.211,-3.546 -24.18,-16.32 -24.171,-30.964 v -8.292 c -0.044,-11.591 6.254,-22.283 16.408,-27.876 5.654,4.783 12.023,8.655 18.878,11.469 z"
   id="path111" />
</g>
<g
   id="g121"
   transform="translate(56.568542)">
	<path
   style="fill:#ffce7a"
   d="m 100.213,274.086 c -12.65,-17.502 -8.724,-41.946 8.786,-54.605 6.687,-4.834 14.723,-7.428 22.971,-7.41 h 4.94 l 0.706,-0.353 c 4.067,7.128 9.386,13.462 15.702,18.702 -10.154,5.593 -16.452,16.285 -16.408,27.876 v 8.292 c -0.009,14.644 9.959,27.417 24.171,30.964 l 9.88,2.47 -47.46,-10.586 c -8.68,-1.95 -16.452,-6.766 -22.054,-13.673 -0.458,-0.522 -0.872,-1.077 -1.234,-1.677 z"
   id="path115" />
	<path
   style="fill:#ffce7a"
   d="m 316.428,271.528 c -0.865,1.482 -1.844,2.893 -2.911,4.234 -5.602,6.907 -13.373,11.724 -22.054,13.673 l -47.46,10.586 9.88,-2.47 c 14.211,-3.546 24.18,-16.32 24.171,-30.964 v -8.292 c 0.044,-11.591 -6.254,-22.283 -16.408,-27.876 6.316,-5.24 11.636,-11.574 15.702,-18.702 l 0.706,0.353 h 4.94 c 21.621,0.018 39.15,17.546 39.167,39.167 0.019,7.164 -1.966,14.195 -5.733,20.291 z"
   id="path117" />
	
</g>
<path
   style="fill:#f7b546"
   d="m 158.19354,512.002 h -44.108 V 344.393 c -0.018,-29.57 16.452,-56.687 42.696,-70.307 0.362,0.591 0.776,1.156 1.235,1.676 5.602,6.907 13.373,11.724 22.054,13.673 l 47.46,10.586 1.235,0.265 35.286,8.822 35.286,-8.822 1.235,-0.265 47.46,-10.586 c 8.68,-1.95 16.452,-6.766 22.054,-13.673 1.067,-1.341 2.047,-2.752 2.911,-4.234 24.991,11.521 41.002,36.521 41.02,64.044 v 176.43 z"
   id="path123" />
<g
   id="g129"
   transform="translate(56.568542)">
	<path
   style="fill:#ffdfc4"
   d="m 242.769,241.887 v 58.398 l -35.286,8.822 -35.286,-8.822 v -58.398 c 8.416,3.37 17.396,5.108 26.465,5.116 h 17.643 c 9.068,-0.008 18.048,-1.746 26.464,-5.116 z"
   id="path125" />
	
</g>


<g
   id="g139"
   transform="translate(56.568542)">
	
	<path
   style="fill:#ffdfc4"
   d="m 316.957,129.06 c 3.352,3.264 5.231,7.754 5.205,12.438 -0.026,9.73 -7.913,17.617 -17.643,17.643 h -17.643 v -35.286 h 17.643 c 4.684,-0.026 9.175,1.853 12.438,5.205 z"
   id="path137" />
</g>
<path
   style="fill:#ff4e1e"
   d="m 231.58854,0.355 c 1.994,-0.256 3.996,-0.371 5.999,-0.353 h 52.929 c 29.234,0 52.929,23.695 52.929,52.929 v 123.854 l -22.23,-11.115 c -40.473,-20.219 -66.02,-61.592 -65.985,-106.828 V 35.641 c 0,38.973 -31.599,70.572 -70.572,70.572 V 52.931 c 0.026,-26.897 20.209,-49.506 46.93,-52.576 z"
   id="path141" />
<path
   style="fill:#ffdfc4"
   d="m 209.88754,230.419 c -6.316,-5.24 -11.636,-11.574 -15.702,-18.702 -6.281,-10.7 -9.571,-22.883 -9.527,-35.286 v -70.219 c 38.973,0 70.572,-31.599 70.572,-70.572 v 23.201 c -0.035,45.237 25.512,86.609 65.985,106.828 l 22.23,11.115 c -0.053,12.28 -3.343,24.33 -9.527,34.933 -4.067,7.128 -9.386,13.462 -15.702,18.702 -12.641,10.771 -28.732,16.655 -45.343,16.584 h -17.643 c -16.612,0.071 -32.693,-5.813 -45.343,-16.584 z m 36.521,-93.331 c 0,-7.304 -5.928,-13.232 -13.232,-13.232 -7.304,0 -13.232,5.928 -13.232,13.232 0,7.304 5.928,13.232 13.232,13.232 7.304,0 13.232,-5.919 13.232,-13.232 z"
   id="path143" />
<circle
   style="fill:#454545"
   cx="233.17554"
   cy="137.088"
   r="13.232"
   id="circle145" />
<path
   style="fill:#d6370d"
   d="m 202.30054,0.355 h 29.287 c -26.72,3.07 -46.904,25.679 -46.93,52.576 v 70.925 h -17.643 c -9.73,0.026 -17.617,7.913 -17.643,17.643 0.071,9.712 7.931,17.572 17.643,17.643 h 17.643 v 17.29 c -0.044,12.403 3.246,24.586 9.527,35.286 l -0.706,0.353 h -4.94 c -21.595,-0.035 -39.132,17.44 -39.167,39.044 -0.018,8.248 2.585,16.293 7.41,22.971 -26.244,13.62 -42.714,40.738 -42.696,70.307 V 88.57 c 0,-48.722 39.494,-88.215 88.215,-88.215 z"
   id="path147" />
<path
   style="fill:#ffdfc4"
   d="m 184.65754,123.856 v 35.286 h -17.643 c -9.712,-0.071 -17.572,-7.931 -17.643,-17.643 0.026,-9.73 7.913,-17.617 17.643,-17.643 0,0 17.643,0 17.643,0 z"
   id="path149" />
<g
   id="g155"
   transform="translate(56.568542)">
	<rect
   x="92.803001"
   y="309.10699"
   style="fill:#d4962f"
   width="17.643"
   height="202.895"
   id="rect151" />
	<rect
   x="304.51901"
   y="309.10699"
   style="fill:#d4962f"
   width="17.643"
   height="202.895"
   id="rect153" />
</g>
<g
   id="g161"
   transform="translate(56.568542)">
	<path
   style="fill:#d6370d"
   d="M 128.089,79.748 V 62.105 c 14.617,0 26.465,-11.847 26.465,-26.465 h 17.643 c -0.027,24.348 -19.761,44.082 -44.108,44.108 z"
   id="path157" />
	<path
   style="fill:#d6370d"
   d="M 281.354,130.736 260.412,113.975 C 243.66,100.619 233.912,80.356 233.948,58.929 h 17.643 c -0.018,16.073 7.313,31.272 19.892,41.276 l 20.916,16.761 z"
   id="path159" />
</g>
<g
   id="g167"
   transform="translate(56.568542)">
	<rect
   x="163.375"
   y="326.75"
   style="fill:#d4962f"
   width="17.643"
   height="70.571999"
   id="rect163" />
	<rect
   x="233.94701"
   y="326.75"
   style="fill:#d4962f"
   width="17.643"
   height="70.571999"
   id="rect165" />
</g>
<path
   style="fill:#ebb691"
   d="m 264.05154,222.701 h -0.071 c -12.262,0.026 -24.021,-4.869 -32.64,-13.585 l 12.509,-12.438 c 5.319,5.381 12.571,8.398 20.131,8.38 v 0 c 7.613,0.026 14.917,-2.999 20.289,-8.398 l 12.474,12.474 c -8.654,8.706 -20.422,13.584 -32.692,13.567 z"
   id="path169" />
<g
   id="g171"
   transform="translate(56.568542)">
</g>
<g
   id="g173"
   transform="translate(56.568542)">
</g>
<g
   id="g175"
   transform="translate(56.568542)">
</g>
<g
   id="g177"
   transform="translate(56.568542)">
</g>
<g
   id="g179"
   transform="translate(56.568542)">
</g>
<g
   id="g181"
   transform="translate(56.568542)">
</g>
<g
   id="g183"
   transform="translate(56.568542)">
</g>
<g
   id="g185"
   transform="translate(56.568542)">
</g>
<g
   id="g187"
   transform="translate(56.568542)">
</g>
<g
   id="g189"
   transform="translate(56.568542)">
</g>
<g
   id="g191"
   transform="translate(56.568542)">
</g>
<g
   id="g193"
   transform="translate(56.568542)">
</g>
<g
   id="g195"
   transform="translate(56.568542)">
</g>
<g
   id="g197"
   transform="translate(56.568542)">
</g>
<g
   id="g199"
   transform="translate(56.568542)">
</g>
<path
   style="fill:#ff6600;fill-opacity:1;stroke:#ff6600;stroke-width:1px;stroke-linecap:butt;stroke-linejoin:miter;stroke-opacity:1"
   d="m 264.05154,309.108 -35.81174,-24.7963 0.52574,15.9733 z"
   id="path212" /><path
   style="fill:#ff6600;stroke:#ff6600;stroke-width:1px;stroke-linecap:butt;stroke-linejoin:miter;stroke-opacity:1"
   d="m 264.05154,309.108 36.52,-9.087 -1.25382,-15.7093 -35.26618,24.7953 z"
   id="path214" /><ellipse
   style="fill:#ff6600;fill-opacity:1;stroke:#ff6600;stroke-opacity:1"
   id="path1041"
   cx="264.51749"
   cy="309.05814"
   rx="5.2848082"
   ry="5.3713307" /><path
   style="fill:none;stroke:#ff6600;stroke-width:1px;stroke-linecap:butt;stroke-linejoin:miter;stroke-opacity:1"
   d="m 264.05154,309.108 c -3.5484,9.90672 -12.1394,18.89661 0.93193,31.8251"
   id="path1047"
   sodipodi:nodetypes="cc" /><path
   style="fill:none;stroke:#ff6600;stroke-width:1px;stroke-linecap:butt;stroke-linejoin:miter;stroke-opacity:1"
   d="m 264.45106,341.03958 c 3.5484,-9.90672 12.1394,-18.89661 -0.93193,-31.8251"
   id="path1047-0"
   sodipodi:nodetypes="cc" /><path
   style="fill:#ff6600;fill-opacity:1;stroke:#ff6600;stroke-width:0.602355;stroke-opacity:1"
   d="m 262.04666,336.05926 c -3.91395,-5.81188 -4.14409,-10.52354 -0.88416,-18.10146 1.14983,-2.67284 1.34219,-2.82311 3.8715,-3.02428 2.52198,-0.20058 2.71678,-0.10089 3.71493,1.90097 0.73794,1.48 1.0406,3.46547 1.01069,6.6303 -0.0364,3.85028 -0.37559,5.27404 -2.29617,9.63769 -1.23941,2.81601 -2.48161,5.3514 -2.76045,5.63421 -0.27884,0.28281 -1.47419,-0.92204 -2.65634,-2.67743 z"
   id="path1069" /><path
   style="fill:#ff6600;fill-opacity:1;stroke:#ff6600;stroke-width:0.0441942;stroke-opacity:1"
   d="m 264.49155,341.11792 c -0.0789,-0.0814 -0.21984,-0.17085 -0.31325,-0.19884 -0.1367,-0.041 -0.16543,-0.0678 -0.14718,-0.13755 0.0244,-0.0934 0.005,-0.11709 -0.7825,-0.97787 -3.96775,-4.3343 -5.88681,-8.78797 -5.72987,-13.29758 0.0464,-1.33423 0.20574,-2.43508 0.56129,-3.87873 0.49098,-1.99352 1.22368,-3.93017 2.73999,-7.24225 0.60859,-1.32933 0.6214,-1.36352 0.53534,-1.42918 -0.80269,-0.61251 -1.1763,-0.98901 -1.59048,-1.60279 -0.68332,-1.01263 -0.98892,-2.03768 -0.99732,-3.34519 l -0.005,-0.72645 -15.21056,-3.80345 c -8.3658,-2.0919 -15.22022,-3.8134 -15.23204,-3.82555 -0.0118,-0.0122 -0.053,-1.02641 -0.0915,-2.2539 -0.0385,-1.2275 -0.0778,-2.3561 -0.0872,-2.50802 l -0.0171,-0.27622 h 8.63701 8.63702 l 7.18547,4.97556 c 3.952,2.73656 7.20815,4.98426 7.23588,4.9949 0.0277,0.0106 0.12462,-0.0779 0.21532,-0.19688 0.22824,-0.29929 0.83407,-0.87274 1.19027,-1.12665 0.60473,-0.43108 1.44044,-0.78672 2.26628,-0.96445 0.40741,-0.0877 1.68513,-0.0768 2.12401,0.018 1.11198,0.24032 2.12814,0.78266 2.91858,1.5577 l 0.29633,0.29055 0.15897,-0.10747 c 0.0874,-0.0591 3.14208,-2.20685 6.78809,-4.77274 l 6.62913,-4.66527 9.14819,0.009 9.14819,0.009 0.18838,2.36016 c 0.10361,1.29808 0.17873,2.3698 0.16694,2.38159 -0.0118,0.0118 -6.92787,1.73943 -15.36907,3.8392 -8.4412,2.09977 -15.37885,3.8274 -15.417,3.83918 -0.0572,0.0177 -0.0636,0.062 -0.0364,0.253 0.0549,0.38535 0.0428,1.17857 -0.0248,1.62369 -0.19856,1.30737 -0.74106,2.3618 -1.71111,3.32574 -0.28749,0.28568 -0.52271,0.53039 -0.52271,0.54381 0,0.0134 0.0767,0.13765 0.17034,0.27608 0.9066,1.33963 1.84674,3.39384 2.28487,4.99245 0.40512,1.47818 0.52802,2.43812 0.52748,4.12017 -5.5e-4,1.72913 -0.13011,2.74664 -0.57003,4.47696 -0.52228,2.05421 -1.22032,3.84478 -3.08806,7.92125 -1.16627,2.54546 -1.20412,2.63056 -1.71896,3.86524 -0.31562,0.75692 -0.38655,0.96581 -0.34877,1.02704 0.038,0.0616 0.0179,0.11552 -0.10144,0.27191 -0.0819,0.10727 -0.16231,0.2485 -0.17871,0.31385 -0.0214,0.0855 -0.0497,0.11118 -0.10065,0.0916 -0.039,-0.0149 -0.10406,0.003 -0.14467,0.0396 -0.0668,0.0605 -0.0875,0.0527 -0.21724,-0.0811 z m 0.0886,-1.74029 0.11552,-0.29831 -0.17912,-0.0322 c -0.99792,-0.17945 -3.5039,-3.62351 -4.73674,-6.50987 -0.5287,-1.2378 -0.88127,-2.52551 -1.06448,-3.88775 -0.10686,-0.79455 -0.10795,-2.46016 -0.002,-3.33666 0.26162,-2.16816 0.94013,-4.51059 2.09302,-7.22575 1.00224,-2.36037 1.40543,-2.89087 2.42035,-3.18459 l 0.26516,-0.0767 -0.37565,-0.10094 c -0.20661,-0.0555 -0.46267,-0.13212 -0.56903,-0.17025 -0.10636,-0.0381 -0.20834,-0.0693 -0.22663,-0.0693 -0.0691,0 -1.51596,3.22035 -2.07579,4.62019 -0.87765,2.19456 -1.40142,4.0612 -1.64255,5.85383 -0.11429,0.84965 -0.15484,2.36426 -0.0853,3.18738 0.2865,3.39275 1.77838,6.67592 4.53605,9.98248 0.49558,0.59423 1.34796,1.5468 1.3841,1.5468 0.0153,0 0.0798,-0.13424 0.14331,-0.29832 z m 2.73111,-24.83712 c -0.16642,-0.27913 -0.16521,-0.27884 -0.50371,-0.1201 l -0.30805,0.14445 0.26386,0.0306 c 0.14511,0.0168 0.32351,0.0468 0.39643,0.0667 0.2433,0.0663 0.25696,0.0553 0.15147,-0.12164 z"
   id="path1073" /><path
   style="fill:#ff6600;fill-opacity:1;stroke:#ff6600;stroke-width:0.0441942;stroke-opacity:1"
   d="m 261.43665,316.48963 c 0,-0.0661 0.83313,-1.86455 0.90211,-1.94738 0.004,-0.005 0.18587,0.0476 0.40356,0.11705 0.2177,0.0695 0.43559,0.13372 0.4842,0.14273 0.0584,0.0108 -0.008,0.0516 -0.19567,0.1202 -0.6017,0.21994 -0.95234,0.53542 -1.36561,1.22867 -0.12572,0.2109 -0.22859,0.36333 -0.22859,0.33873 z"
   id="path1075" /><path
   style="fill:#ff6600;fill-opacity:1;stroke:#ff6600;stroke-width:0.0441942;stroke-opacity:1"
   d="m 264.53099,341.15724 c -0.0573,-0.061 -0.2004,-0.15436 -0.31803,-0.20753 -0.16036,-0.0725 -0.20795,-0.11533 -0.19019,-0.17128 0.0165,-0.0519 -0.17619,-0.29582 -0.63183,-0.80008 -2.56708,-2.84096 -4.10831,-5.27979 -5.02688,-7.95445 -0.53928,-1.57029 -0.7973,-2.97063 -0.84565,-4.58974 -0.0806,-2.69967 0.49828,-5.39666 1.90413,-8.87104 0.3622,-0.89513 0.60381,-1.44958 1.35657,-3.11312 0.33734,-0.74551 0.61335,-1.37449 0.61335,-1.39774 0,-0.0233 -0.18894,-0.19581 -0.41987,-0.38346 -0.52033,-0.42281 -0.8815,-0.81336 -1.22019,-1.31945 -0.66705,-0.99675 -0.95211,-1.94326 -1.00582,-3.33968 l -0.0279,-0.72473 -15.18851,-3.80518 c -8.35368,-2.09284 -15.19888,-3.81574 -15.21154,-3.82865 -0.0127,-0.0129 -0.0532,-0.92774 -0.0901,-2.03293 -0.0369,-1.1052 -0.0785,-2.23319 -0.0925,-2.50664 l -0.0254,-0.49719 8.65282,1.3e-4 8.65281,1.2e-4 7.11526,4.92556 c 3.91339,2.70907 7.15793,4.94859 7.21008,4.97672 0.0867,0.0468 0.14318,0.002 0.66291,-0.52287 0.91523,-0.92478 1.73398,-1.38849 2.95458,-1.67337 0.44457,-0.10376 1.73126,-0.11628 2.20971,-0.0215 1.07545,0.21303 2.07815,0.73301 2.90466,1.50631 l 0.36807,0.34436 1.30255,-0.91703 c 0.7164,-0.50436 3.76678,-2.64984 6.77861,-4.76772 l 5.47607,-3.8507 h 9.16325 c 9.0829,0 9.16326,7.7e-4 9.16326,0.0869 0,0.0478 0.0806,1.11403 0.17918,2.36935 0.0985,1.25533 0.16913,2.29246 0.15685,2.30474 -0.0237,0.0237 -8.35238,2.10683 -22.12376,5.53348 -4.60614,1.14611 -8.4444,2.10226 -8.52948,2.12477 l -0.15468,0.0409 v 0.89621 c 0,0.9766 -0.0436,1.28021 -0.28741,2.00151 -0.29344,0.86812 -0.71372,1.52596 -1.46664,2.29565 l -0.51682,0.52832 0.32315,0.51024 c 1.0094,1.59381 1.82825,3.49308 2.25551,5.23156 0.3328,1.35413 0.44684,2.4935 0.40714,4.0679 -0.042,1.665 -0.22818,2.86578 -0.71483,4.60981 -0.52659,1.88719 -1.12852,3.39432 -2.97088,7.43853 -1.62404,3.56498 -2.06876,4.62231 -2.0286,4.82312 0.0175,0.0877 -0.009,0.16056 -0.10096,0.27616 -0.0686,0.0864 -0.14976,0.21731 -0.18028,0.291 -0.0378,0.0912 -0.0862,0.13399 -0.15178,0.13399 -0.053,0 -0.11644,0.0202 -0.14107,0.0448 -0.0302,0.0302 -0.0786,0.009 -0.14893,-0.0661 z m 0.0373,-1.77249 c 0.11781,-0.30787 0.11752,-0.3273 -0.005,-0.32849 -0.54274,-0.005 -1.70139,-1.24175 -2.96295,-3.16191 -2.62062,-3.98869 -3.44468,-7.47053 -2.74495,-11.59798 0.20712,-1.22175 0.64167,-2.8058 1.16387,-4.24264 0.44574,-1.22643 1.16368,-2.92348 1.52844,-3.61287 0.1061,-0.20053 0.17209,-0.3646 0.14664,-0.3646 -0.0255,0 -0.0348,-0.0298 -0.0208,-0.0663 0.014,-0.0365 0.008,-0.0663 -0.0128,-0.0663 -0.0374,0 -0.74303,1.56293 -1.19422,2.64514 -1.04255,2.50065 -1.64739,4.63164 -1.88458,6.63983 -0.10462,0.88576 -0.10578,2.68106 -0.002,3.46505 0.40051,3.03268 1.68656,5.88311 3.95771,8.77198 0.7318,0.93085 1.81734,2.16608 1.90357,2.16608 0.018,0 0.0752,-0.11115 0.12723,-0.247 z m -2.62978,-23.58471 c 0.0667,-0.0912 0.10308,-0.16572 0.0808,-0.16572 -0.0413,0 -0.27329,0.32551 -0.27329,0.38354 0,0.0378 0.031,0.003 0.19252,-0.21782 z m -0.10242,-0.17501 c 0.0477,-0.0902 0.0857,-0.18962 0.0846,-0.22097 -0.002,-0.0628 -0.25806,0.40225 -0.26032,0.47332 -0.002,0.0545 0.0616,-0.0365 0.17572,-0.25235 z m 0.37672,-0.17854 0.12981,-0.14363 -0.14364,0.1298 c -0.13388,0.121 -0.16394,0.15746 -0.1298,0.15746 0.008,0 0.0722,-0.0646 0.14363,-0.14363 z m -0.004,-0.60457 c 0.0865,-0.18105 0.15518,-0.26841 0.21851,-0.27808 0.0888,-0.0136 0.0885,-0.0152 -0.009,-0.0426 -0.091,-0.0257 -0.12023,0.01 -0.29831,0.36462 -0.10858,0.21621 -0.1973,0.40842 -0.19714,0.42713 5e-4,0.0578 0.15294,-0.19376 0.28549,-0.4711 z m 0.26665,0.39465 c 0.015,-0.0243 0.007,-0.0442 -0.0169,-0.0442 -0.0243,0 -0.0565,0.0199 -0.0715,0.0442 -0.015,0.0243 -0.007,0.0442 0.0169,0.0442 0.0243,0 0.0565,-0.0199 0.0715,-0.0442 z m 0.43629,-0.26103 c -0.0226,-0.0261 -0.37,0.13615 -0.37,0.17283 0,0.017 0.0867,-0.0109 0.19277,-0.062 0.10603,-0.0511 0.18578,-0.10099 0.17723,-0.11087 z m 0.33711,-0.0945 0.19887,-0.0551 -0.21944,-0.0577 c -0.12069,-0.0317 -0.22828,-0.0489 -0.23908,-0.0381 -0.0108,0.0108 0.0453,0.0326 0.12466,0.0485 l 0.14429,0.0289 -0.13723,0.0577 c -0.0755,0.0317 -0.13724,0.0698 -0.13724,0.0845 0,0.0148 0.0149,0.0177 0.0332,0.007 0.0182,-0.0111 0.12264,-0.045 0.23202,-0.0753 z m -0.46625,-0.21406 c -0.0231,-0.0216 -0.0917,-0.0512 -0.15247,-0.0659 -0.0925,-0.0223 -0.0889,-0.0163 0.0221,0.0372 0.1562,0.0752 0.18766,0.0821 0.13038,0.0286 z m 4.51619,-0.12561 c -0.12427,-0.2403 -0.16761,-0.25022 -0.47715,-0.10921 l -0.28033,0.12771 0.27963,0.0337 c 0.1538,0.0185 0.33279,0.0486 0.39775,0.0668 0.15354,0.043 0.15936,0.0343 0.0801,-0.11897 z"
   id="path1077" /><path
   style="fill:#ff6600;fill-opacity:1;stroke:#ff6600;stroke-width:0.0441942;stroke-opacity:1"
   d="m 264.46585,341.13008 c -0.0806,-0.0707 -0.2157,-0.15753 -0.30031,-0.19288 -0.10892,-0.0455 -0.1614,-0.10029 -0.17978,-0.18768 -0.0154,-0.0734 -0.25255,-0.37419 -0.58499,-0.74212 -2.33094,-2.57973 -3.81412,-4.83075 -4.76179,-7.22694 -0.85032,-2.15006 -1.17855,-3.97336 -1.12155,-6.23018 0.0778,-3.08223 0.84734,-5.76747 3.05849,-10.6729 0.28486,-0.63197 0.58423,-1.30285 0.66526,-1.49083 l 0.14732,-0.34179 -0.43193,-0.37188 c -0.54691,-0.47086 -0.9239,-0.88183 -1.22102,-1.33103 -0.66453,-1.0047 -0.93375,-1.895 -0.98754,-3.26569 -0.0234,-0.596 -0.0427,-0.75408 -0.0956,-0.78359 -0.0365,-0.0203 -6.65896,-1.68814 -14.71666,-3.70625 -8.0577,-2.0181 -14.85918,-3.72163 -15.11441,-3.78561 -0.25522,-0.064 -0.47891,-0.12943 -0.49708,-0.14544 -0.0253,-0.0223 -0.20808,-4.30974 -0.2097,-4.91938 l -3.2e-4,-0.12154 h 8.66113 8.66112 l 5.11641,3.54318 c 2.81402,1.94875 6.04943,4.18684 7.1898,4.97354 l 2.07339,1.43036 0.57826,-0.5689 c 0.77637,-0.76382 1.21877,-1.06618 2.03911,-1.39363 0.76933,-0.3071 1.0772,-0.35949 2.09678,-0.35686 0.83025,0.002 0.94138,0.0119 1.32958,0.11622 1.05999,0.28494 1.8944,0.74847 2.63883,1.46592 0.30203,0.29108 0.32854,0.30688 0.41984,0.25019 0.0917,-0.0569 4.26182,-2.98629 10.64686,-7.479 l 2.81543,-1.98102 h 9.16715 9.16715 l 0.0264,0.23202 c 0.0862,0.75722 0.34214,4.50918 0.3097,4.53926 -0.0354,0.0328 -5.14711,1.31151 -23.79302,5.9517 -3.7554,0.93457 -6.8628,1.70968 -6.90534,1.72247 -0.0697,0.021 -0.0774,0.0979 -0.0776,0.78264 -3.1e-4,0.8872 -0.0751,1.45932 -0.26464,2.02517 -0.32249,0.96254 -0.70709,1.57981 -1.47843,2.3728 l -0.53012,0.545 0.0697,0.11791 c 0.0383,0.0648 0.2128,0.35228 0.38773,0.63874 1.16701,1.91097 2.02265,4.14733 2.34451,6.12772 0.14853,0.91385 0.19139,1.66193 0.16604,2.89739 -0.0316,1.54053 -0.15101,2.44135 -0.52129,3.93328 -0.54995,2.21588 -1.08233,3.58168 -3.33157,8.54703 -1.53944,3.39842 -1.85295,4.15365 -1.8447,4.44378 0.002,0.0741 -0.0327,0.17458 -0.0773,0.22321 -0.0446,0.0486 -0.12222,0.16631 -0.1725,0.2615 -0.0648,0.12269 -0.13784,0.18904 -0.25088,0.2279 -0.15011,0.0516 -0.16806,0.0473 -0.30594,-0.0738 z m 0.10786,-1.79507 c 0.0908,-0.23894 0.0822,-0.27755 -0.0619,-0.2782 -0.15349,-6.9e-4 -0.53868,-0.24989 -0.87199,-0.56412 -1.01209,-0.95419 -2.46353,-3.05453 -3.39518,-4.91306 -1.82998,-3.65057 -2.10808,-7.1601 -0.90612,-11.43486 0.46811,-1.66483 1.3547,-3.99447 2.08117,-5.46856 0.13268,-0.26921 0.21065,-0.45086 0.17328,-0.40368 -0.0374,0.0472 -0.0683,0.10684 -0.0686,0.13258 -3.6e-4,0.0257 -0.0221,0.017 -0.0484,-0.0195 -0.0402,-0.056 -0.0438,-0.0542 -0.0228,0.011 0.0137,0.0425 0.008,0.0773 -0.0134,0.0773 -0.0493,0 -0.70605,1.48259 -1.18369,2.67214 -0.95205,2.37106 -1.53064,4.5566 -1.69104,6.38767 -0.0674,0.7692 -0.0559,2.40692 0.0216,3.06894 0.37459,3.20228 1.87014,6.37268 4.4834,9.5043 0.72772,0.87208 1.33815,1.53181 1.37928,1.49068 0.0218,-0.0217 0.0777,-0.13998 0.12435,-0.26272 z m -1.2588,-24.49619 c 0.015,-0.0243 0.007,-0.0442 -0.0169,-0.0442 -0.0243,0 -0.0565,0.0199 -0.0715,0.0442 -0.015,0.0243 -0.007,0.0442 0.0169,0.0442 0.0243,0 0.0565,-0.0199 0.0715,-0.0442 z m 3.99957,-0.20107 c 0,-0.0134 -0.0303,-0.083 -0.0674,-0.15468 -0.0815,-0.15757 -0.17073,-0.16378 -0.44452,-0.031 l -0.20496,0.0994 0.30321,0.0493 c 0.39325,0.0639 0.4137,0.0657 0.4137,0.0369 z"
   id="path1079" /><path
   style="fill:#ff6600;fill-opacity:1;stroke:#ff6600;stroke-width:0.0441942;stroke-opacity:1"
   d="m 264.49598,341.1587 c -0.0662,-0.0554 -0.20493,-0.14355 -0.30824,-0.19598 -0.1033,-0.0524 -0.18782,-0.12342 -0.18782,-0.15776 0,-0.0765 -0.28673,-0.43072 -1.03857,-1.28298 -2.36349,-2.67916 -3.82538,-5.09575 -4.70468,-7.77705 -0.5834,-1.77902 -0.78723,-3.20892 -0.73966,-5.18875 0.075,-3.11938 0.7918,-5.62358 3.07443,-10.74002 0.41625,-0.93302 0.75683,-1.72129 0.75683,-1.7517 0,-0.0304 -0.13609,-0.16664 -0.30242,-0.30272 -0.73686,-0.60285 -1.39393,-1.41834 -1.75374,-2.17656 -0.35184,-0.74142 -0.49056,-1.36644 -0.55207,-2.48731 -0.0232,-0.42301 -0.0474,-0.77427 -0.0539,-0.78059 -0.0258,-0.0254 -2.68044,-0.69435 -16.20752,-4.08424 -7.76531,-1.946 -14.13489,-3.55432 -14.15462,-3.57405 -0.0336,-0.0336 -0.20773,-3.94941 -0.20915,-4.70213 l -6.4e-4,-0.34251 h 8.66747 8.66748 l 5.70668,3.94918 c 8.31756,5.75597 8.60052,5.95032 8.66325,5.95032 0.0315,0 0.17457,-0.1243 0.31792,-0.27621 0.84075,-0.89095 1.47041,-1.33398 2.40022,-1.68881 0.70426,-0.26876 0.98154,-0.31124 2.01507,-0.30871 0.81769,0.002 0.97186,0.014 1.29609,0.10125 1.00123,0.26928 1.83358,0.725 2.59568,1.42114 l 0.38768,0.35412 0.11418,-0.0741 c 0.12023,-0.078 5.05207,-3.5418 10.30094,-7.23472 l 3.11569,-2.19209 9.17745,-7e-4 9.17746,-7.1e-4 0.0262,0.16573 c 0.0229,0.14498 0.11041,1.28785 0.29466,3.84802 0.03,0.41667 0.0354,0.73775 0.0129,0.76027 -0.0327,0.0327 -15.34111,3.86449 -27.44647,6.86996 l -3.32192,0.82475 -0.005,0.78146 c -0.007,1.05769 -0.0635,1.44228 -0.31479,2.15434 -0.30194,0.8557 -0.67618,1.44037 -1.45718,2.27649 l -0.47785,0.51158 0.399,0.65957 c 1.40295,2.31912 2.28387,4.83033 2.50913,7.15273 0.0592,0.61001 0.0599,2.35632 10e-4,3.05277 -0.0947,1.12525 -0.29302,2.18065 -0.66387,3.5332 -0.49995,1.82335 -1.08532,3.28214 -3.15677,7.86688 -1.49147,3.30107 -1.83485,4.1253 -1.83485,4.40429 0,0.0802 -0.045,0.20056 -0.10394,0.27814 -0.0572,0.0752 -0.13527,0.19761 -0.17357,0.27199 -0.0461,0.0895 -0.12341,0.15174 -0.22863,0.18403 -0.14108,0.0433 -0.17258,0.0374 -0.27943,-0.0519 z m 0.0402,-1.77324 c 0.10944,-0.24739 0.0899,-0.30869 -0.11006,-0.34621 -0.61302,-0.11501 -2.17838,-1.96905 -3.41761,-4.04789 -2.25415,-3.78138 -2.8818,-7.21218 -2.06171,-11.26951 0.39876,-1.97286 1.2846,-4.53483 2.37418,-6.86649 0.11212,-0.23993 0.17644,-0.41348 0.14294,-0.38567 -0.11871,0.0985 -1.02154,2.17997 -1.50964,3.48042 -0.65078,1.73385 -1.11208,3.49492 -1.32949,5.07547 -0.0624,0.4537 -0.0787,0.86727 -0.0777,1.96664 10e-4,1.28737 0.0101,1.44554 0.11699,2.10214 0.45557,2.79723 1.6882,5.50138 3.69526,8.10671 0.6567,0.85245 1.98579,2.38649 2.06766,2.38649 0.0109,0 0.06,-0.091 0.10916,-0.2021 z m 2.77826,-24.76515 c 0,-0.023 -0.0463,-0.0955 -0.10282,-0.16126 l -0.10282,-0.11953 -0.20654,0.0789 c -0.11359,0.0434 -0.20654,0.0933 -0.20654,0.1109 0,0.0176 0.1243,0.0519 0.27622,0.0762 0.15191,0.0243 0.29112,0.047 0.30935,0.0504 0.0182,0.003 0.0331,-0.0126 0.0331,-0.0356 z"
   id="path1081" /><path
   style="fill:#ff6600;fill-opacity:1;stroke:#ff6600;stroke-width:0.0441942;stroke-opacity:1"
   d="m 264.31375,341.06142 c -0.15876,-0.10984 -0.33551,-0.27879 -0.40301,-0.38523 -0.0661,-0.10426 -0.42386,-0.53605 -0.79498,-0.95951 -2.52554,-2.8818 -3.94551,-5.19518 -4.84,-7.8852 -0.40192,-1.20872 -0.62567,-2.27223 -0.7327,-3.48266 -0.0578,-0.65338 -0.0286,-2.68275 0.0474,-3.30115 0.31902,-2.59465 1.04248,-4.83035 2.98161,-9.21408 l 0.78179,-1.76737 -0.23481,-0.21665 c -0.9742,-0.89886 -1.35645,-1.35378 -1.73258,-2.06197 -0.40229,-0.75744 -0.57676,-1.46412 -0.6508,-2.63596 -0.0274,-0.433 -0.0632,-0.80215 -0.0797,-0.82033 -0.0299,-0.0331 -3.2155,-0.83729 -20.42128,-5.15554 -5.04366,-1.26584 -9.33933,-2.34645 -9.54594,-2.40135 l -0.37565,-0.0998 -0.0316,-0.33146 c -0.0405,-0.42517 -0.16815,-3.68078 -0.16767,-4.27579 l 3.6e-4,-0.45299 h 8.67574 8.67574 l 3.46661,2.39951 c 5.34626,3.70056 9.54493,6.60219 10.24171,7.07789 0.57862,0.39504 0.63846,0.42579 0.7071,0.36337 0.0412,-0.0375 0.27013,-0.25938 0.50862,-0.49306 0.77579,-0.76018 1.46749,-1.19645 2.37906,-1.50056 0.54803,-0.18282 1.01035,-0.24621 1.78236,-0.24438 0.76073,0.002 1.1287,0.054 1.6791,0.23817 0.83962,0.28095 1.49354,0.66236 2.20716,1.28735 0.39243,0.34369 0.39418,0.34463 0.51489,0.27535 0.10398,-0.0597 3.70909,-2.58874 11.50478,-8.07086 l 1.89523,-1.33278 h 9.18562 9.18562 l 0.0221,0.0994 c 0.0121,0.0547 0.062,0.6364 0.11072,1.29268 0.27033,3.63799 0.26521,3.37862 0.0678,3.43496 -0.19243,0.0549 -21.24373,5.31666 -26.30219,6.57419 -3.93099,0.97724 -4.29569,1.07551 -4.31938,1.16386 -0.0142,0.0531 -0.0262,0.42701 -0.0265,0.83097 -6.8e-4,0.83384 -0.0683,1.31277 -0.27065,1.91671 -0.29634,0.88453 -0.7296,1.56891 -1.51835,2.39845 -0.23172,0.2437 -0.42131,0.46132 -0.42131,0.4836 0,0.0223 0.16889,0.32165 0.37532,0.66526 1.41211,2.35061 2.2856,4.84379 2.49984,7.13522 0.0714,0.7635 0.0305,3.10395 -0.0663,3.79154 -0.14452,1.02699 -0.35315,1.9806 -0.68308,3.12224 -0.48587,1.68124 -1.03111,3.0284 -2.97517,7.35099 -1.64121,3.64919 -1.93483,4.35137 -1.93483,4.627 0,0.1747 -0.33779,0.66295 -0.49707,0.71847 -0.17131,0.0597 -0.14017,0.0702 -0.47073,-0.15851 z m 0.21468,-1.68933 c 0.0672,-0.20353 0.0395,-0.31486 -0.0783,-0.31486 -0.14737,0 -0.59512,-0.33192 -0.99068,-0.73439 -1.00462,-1.02217 -2.37526,-3.02611 -3.21685,-4.70317 -0.70736,-1.40959 -1.21711,-2.92474 -1.45654,-4.32936 -0.15322,-0.89882 -0.19027,-1.50196 -0.16416,-2.67229 0.0321,-1.44056 0.15737,-2.33289 0.54603,-3.89054 0.37014,-1.48346 1.21159,-3.83317 1.95489,-5.45897 0.14805,-0.32382 0.26235,-0.59558 0.25401,-0.60393 -0.0433,-0.0433 -0.93889,2.04364 -1.3882,3.23493 -0.68582,1.81834 -1.17533,3.69959 -1.3613,5.23167 -0.10807,0.8903 -0.0682,3.39522 0.0654,4.11494 0.50093,2.69705 1.59611,5.13734 3.40106,7.57826 0.74128,1.00248 2.2684,2.79031 2.34367,2.74379 0.0181,-0.0112 0.0591,-0.0994 0.0909,-0.19608 z m 2.74186,-24.79354 c 0,-0.0216 -0.0353,-0.0829 -0.0785,-0.1362 -0.0769,-0.0949 -0.0822,-0.0954 -0.26516,-0.0222 -0.2237,0.0895 -0.23724,0.14162 -0.0431,0.16572 0.27349,0.0339 0.3867,0.0318 0.3867,-0.007 z"
   id="path1083" /><path
   style="fill:#ff6600;fill-opacity:1;stroke:#ff6600;stroke-width:0.0441942;stroke-opacity:1"
   d="m 264.32532,341.07653 c -0.15683,-0.10955 -0.36803,-0.31736 -0.50078,-0.49275 -0.12626,-0.16682 -0.47281,-0.58351 -0.77012,-0.92598 -2.88123,-3.31892 -4.38434,-5.97431 -5.15178,-9.10107 -0.32734,-1.3337 -0.37446,-1.78047 -0.37589,-3.56451 -8.5e-4,-1.05639 0.0176,-1.70604 0.0566,-1.98874 0.39447,-2.86236 1.03182,-4.78365 3.23169,-9.74203 0.26892,-0.60614 0.49394,-1.12756 0.50004,-1.15871 0.006,-0.0312 -0.19168,-0.24123 -0.43951,-0.46683 -0.74611,-0.67918 -1.18777,-1.23828 -1.55472,-1.9681 -0.36318,-0.72233 -0.50446,-1.32013 -0.59674,-2.52491 -0.032,-0.41837 -0.0762,-0.77748 -0.0981,-0.79801 -0.0512,-0.048 -1.33624,-0.37523 -10.84533,-2.76172 -13.96176,-3.50397 -19.46352,-4.88983 -19.48077,-4.90709 -0.0287,-0.0287 -0.13684,-2.45189 -0.16917,-3.79114 l -0.0307,-1.27059 h 8.68941 8.6894 l 6.0896,4.21211 c 7.53993,5.21527 8.16422,5.6432 8.2328,5.6432 0.0303,0 0.29295,-0.22932 0.58364,-0.50958 0.90734,-0.87479 1.62068,-1.29632 2.73114,-1.61391 0.42227,-0.12077 1.77595,-0.1717 2.34646,-0.0883 1.01287,0.1481 2.08078,0.68392 3.0242,1.51737 l 0.33955,0.29997 0.14615,-0.0862 c 0.15941,-0.0941 1.61011,-1.11035 8.69326,-6.0901 l 4.67222,-3.28476 9.20475,0.0111 9.20475,0.0112 0.0319,0.30936 c 0.0478,0.46385 0.2541,3.28068 0.28558,3.89867 l 0.0275,0.5399 -0.12828,0.0494 c -0.0705,0.0272 -6.81337,1.7183 -14.98404,3.7581 -13.43553,3.35417 -15.60241,3.90101 -15.65122,3.94982 -0.008,0.008 -0.0247,0.37985 -0.0367,0.82591 -0.026,0.96937 -0.0929,1.41312 -0.30579,2.02889 -0.27834,0.80515 -0.68691,1.46396 -1.36492,2.20087 -0.19328,0.21007 -0.3988,0.43426 -0.45671,0.49819 l -0.1053,0.11624 0.33977,0.56877 c 1.40244,2.34763 2.25352,4.6977 2.51859,6.95455 0.0763,0.64999 0.0875,2.70475 0.0191,3.51371 -0.10888,1.28736 -0.47734,2.94709 -1.01619,4.57736 -0.42087,1.27335 -0.97269,2.60049 -2.50434,6.02301 -0.52366,1.17015 -1.08097,2.41592 -1.23846,2.76837 -0.46186,1.0336 -0.79619,1.87529 -0.85455,2.15135 -0.0919,0.43488 -0.44074,0.89966 -0.67359,0.89757 -0.0292,-4.4e-4 -0.17521,-0.0857 -0.32438,-0.18993 z m 0.20163,-1.74054 c 0.0243,-0.088 0.0346,-0.17548 0.0229,-0.19442 -0.0117,-0.0189 -0.12531,-0.0831 -0.25246,-0.14266 -0.46603,-0.21817 -1.08176,-0.84233 -1.90696,-1.93312 -0.89326,-1.18075 -1.54891,-2.24646 -2.21427,-3.59913 -0.81684,-1.6606 -1.26695,-3.10441 -1.49489,-4.79506 -0.0344,-0.25522 -0.0645,-0.39444 -0.0669,-0.30936 -0.007,0.24697 0.10993,1.03937 0.23468,1.59062 0.58928,2.60409 1.84073,5.10833 3.75868,7.52135 0.87533,1.10128 1.76258,2.09131 1.83442,2.04691 0.0224,-0.0138 0.0606,-0.0971 0.0848,-0.18513 z m -5.80831,-14.34931 c 0.18188,-1.40771 0.58917,-2.99942 1.23315,-4.8193 0.1112,-0.31425 0.19492,-0.57863 0.18605,-0.58751 -0.009,-0.009 -0.10554,0.22835 -0.2148,0.52717 -0.82135,2.2463 -1.28358,4.2825 -1.33223,5.86871 l -0.021,0.68501 0.0398,-0.56923 c 0.0219,-0.31307 0.071,-0.81026 0.10902,-1.10485 z m 1.54363,-5.68425 c 0.0205,-0.0768 0.0171,-0.0903 -0.0114,-0.0442 -0.0225,0.0365 -0.0543,0.11601 -0.0705,0.17677 -0.0205,0.0768 -0.0171,0.0903 0.0114,0.0442 0.0225,-0.0365 0.0543,-0.11601 0.0705,-0.17678 z m 0.11237,-0.28726 c 0,-0.0243 -0.0193,-0.0144 -0.0428,0.0221 -0.0236,0.0365 -0.0428,0.0862 -0.0428,0.11048 0,0.0243 0.0193,0.0144 0.0428,-0.0221 0.0236,-0.0365 0.0428,-0.0862 0.0428,-0.11048 z m 6.89565,-4.42699 c 0,-0.0546 -0.14557,-0.1913 -0.20365,-0.1913 -0.0831,0 -0.28249,0.0966 -0.28249,0.13687 0,0.0316 0.1398,0.0595 0.3867,0.077 0.0547,0.004 0.0994,-0.006 0.0994,-0.0226 z"
   id="path1085" /><path
   style="fill:#ff6600;fill-opacity:1;stroke:#ff6600;stroke-width:0.0441942;stroke-opacity:1"
   d="m 264.32245,341.07911 c -0.1524,-0.10692 -0.38747,-0.33916 -0.54573,-0.53915 -0.15291,-0.19323 -0.45963,-0.56114 -0.6816,-0.81759 -2.73445,-3.15922 -4.17437,-5.58848 -5.01354,-8.45824 -0.4215,-1.44144 -0.5348,-2.21414 -0.56525,-3.85498 -0.0268,-1.44429 0.0173,-2.20989 0.18687,-3.24536 0.35598,-2.1735 1.07316,-4.2722 2.83582,-8.2986 l 0.77923,-1.77996 -0.63686,-0.62862 c -0.68807,-0.67918 -1.0304,-1.12149 -1.34501,-1.73781 -0.36524,-0.71552 -0.50948,-1.30236 -0.61809,-2.51474 -0.0417,-0.46592 -0.093,-0.81636 -0.12381,-0.84585 -0.0656,-0.0628 -1.16267,-0.34269 -12.62579,-3.22055 -11.99973,-3.01257 -16.51813,-4.14928 -17.15583,-4.31593 l -0.51672,-0.13504 -0.0243,-0.22702 c -0.0313,-0.29198 -0.10423,-2.00115 -0.13513,-3.16594 -0.0132,-0.49829 -0.0343,-1.07999 -0.0469,-1.29268 l -0.0229,-0.3867 h 8.71291 8.71291 l 2.25988,1.56232 c 1.24293,0.85927 4.09946,2.83424 6.34784,4.38882 4.57658,3.16436 5.57393,3.84788 5.66618,3.88328 0.0399,0.0153 0.25406,-0.15506 0.5751,-0.45749 0.86288,-0.81287 1.37166,-1.15075 2.20444,-1.46398 0.64092,-0.24106 1.08955,-0.31162 1.97885,-0.31121 0.86273,3.9e-4 1.15188,0.0403 1.75851,0.24267 0.77684,0.25916 1.41391,0.63008 2.11157,1.22941 0.21739,0.18675 0.42424,0.33954 0.45967,0.33954 0.065,0 1.92204,-1.29472 9.3757,-6.53683 l 4.08796,-2.87504 9.21983,-7.4e-4 9.21982,-7.5e-4 0.0286,0.29832 c 0.0653,0.68122 0.25046,3.26194 0.27687,3.85982 l 0.0285,0.64471 -1.34347,0.33875 c -0.7389,0.18631 -7.53838,1.88859 -15.10994,3.78284 -7.57157,1.89424 -13.88581,3.48097 -14.03165,3.52607 l -0.26517,0.082 -0.0323,0.83681 c -0.0361,0.93464 -0.10823,1.40234 -0.30659,1.98818 -0.28441,0.83998 -0.69921,1.49534 -1.49507,2.36216 l -0.43358,0.47224 0.37318,0.63783 c 1.39206,2.37924 2.19717,4.60354 2.47038,6.82501 0.0959,0.77977 0.0949,2.92527 -0.002,3.84291 -0.13082,1.2416 -0.48693,2.78738 -0.99314,4.31092 -0.49425,1.48755 -0.83415,2.30163 -2.79249,6.68816 -1.35632,3.03804 -1.6577,3.75251 -1.80093,4.26938 -0.1404,0.50662 -0.43121,0.8865 -0.67866,0.8865 -0.0334,0 -0.1811,-0.0845 -0.32834,-0.18783 z m 0.20623,-1.84536 c 10e-4,-0.0897 -0.0384,-0.12913 -0.20836,-0.20741 -0.47281,-0.21771 -1.12438,-0.87793 -1.95402,-1.97995 -1.33177,-1.76899 -2.35673,-3.64095 -3.01263,-5.50217 -0.11563,-0.32814 -0.21134,-0.5758 -0.21268,-0.55036 -10e-4,0.0255 0.0747,0.27404 0.16893,0.55243 0.8777,2.59253 2.43922,5.10245 4.72353,7.59238 0.37286,0.40642 0.37971,0.41128 0.43623,0.30936 0.0316,-0.057 0.0581,-0.15338 0.059,-0.21428 z m -5.41538,-8.45977 c -0.0162,-0.0648 -0.0381,-0.10924 -0.0485,-0.0988 -0.0104,0.0104 -0.006,0.0719 0.0106,0.1367 0.0163,0.0648 0.0381,0.10923 0.0485,0.0988 0.0104,-0.0104 0.006,-0.0719 -0.0106,-0.1367 z m -0.11412,-0.41621 c -0.0289,-0.12507 -0.0613,-0.21861 -0.072,-0.20787 -0.0108,0.0107 0.005,0.12111 0.0346,0.24527 0.0298,0.12416 0.0622,0.2177 0.072,0.20787 0.01,-0.01 -0.006,-0.12019 -0.0346,-0.24527 z m -0.0956,-0.36863 c -0.0141,-0.0353 -0.0246,-0.0248 -0.0267,0.0267 -0.002,0.0466 0.009,0.0727 0.0232,0.058 0.0147,-0.0147 0.0163,-0.0528 0.003,-0.0847 z m -0.0451,-0.22374 c -0.0123,-0.0304 -0.0223,-0.006 -0.0223,0.0552 0,0.0608 0.01,0.0856 0.0223,0.0553 0.0123,-0.0304 0.0123,-0.0801 0,-0.11049 z m -0.0442,-0.22097 c -0.0123,-0.0304 -0.0223,-0.006 -0.0223,0.0552 0,0.0608 0.01,0.0856 0.0223,0.0553 0.0123,-0.0304 0.0123,-0.0801 0,-0.11049 z m -0.0442,-0.22097 c -0.0123,-0.0304 -0.0223,-0.006 -0.0223,0.0552 0,0.0608 0.01,0.0856 0.0223,0.0553 0.0123,-0.0304 0.0123,-0.0801 0,-0.11049 z m -0.043,-0.28726 c -0.0111,-0.0425 -0.0202,-0.008 -0.0202,0.0773 0,0.0851 0.009,0.11987 0.0202,0.0773 0.0111,-0.0425 0.0111,-0.11214 0,-0.15468 z m -0.0454,-0.24307 c -0.0123,-0.0304 -0.0223,-0.006 -0.0223,0.0552 0,0.0608 0.01,0.0856 0.0223,0.0553 0.0123,-0.0304 0.0123,-0.0801 0,-0.11049 z m 0.001,-3.7786 c -0.0111,-0.0425 -0.0202,-0.008 -0.0202,0.0773 0,0.0851 0.009,0.11987 0.0202,0.0773 0.0111,-0.0425 0.0111,-0.11214 0,-0.15468 z m 0.0442,-0.30936 c -0.0111,-0.0425 -0.0202,-0.008 -0.0202,0.0773 0,0.0851 0.009,0.11988 0.0202,0.0773 0.0111,-0.0425 0.0111,-0.11214 0,-0.15468 z m 0.0444,-0.26432 c -0.0112,-0.043 -0.0211,-0.0185 -0.022,0.0544 -9e-4,0.0729 0.008,0.1081 0.0204,0.0782 0.0121,-0.0299 0.0128,-0.0896 0.002,-0.13258 z m 0.0442,-0.26517 c -0.0112,-0.043 -0.0211,-0.0185 -0.022,0.0544 -9e-4,0.0729 0.008,0.1081 0.0204,0.0782 0.0121,-0.0299 0.0128,-0.0896 0.002,-0.13258 z m 0.0428,-0.24391 c -0.0123,-0.0304 -0.0223,-0.006 -0.0223,0.0552 0,0.0608 0.01,0.0856 0.0223,0.0553 0.0123,-0.0304 0.0123,-0.0801 0,-0.11049 z m 0.0442,-0.22097 c -0.0123,-0.0304 -0.0223,-0.006 -0.0223,0.0552 0,0.0608 0.01,0.0856 0.0223,0.0553 0.0123,-0.0304 0.0123,-0.0801 0,-0.11049 z m 0.0442,-0.22097 c -0.0123,-0.0304 -0.0223,-0.006 -0.0223,0.0552 0,0.0608 0.01,0.0856 0.0223,0.0552 0.0123,-0.0304 0.0123,-0.0801 0,-0.11048 z m 0.26465,-1.07024 c -0.0151,-0.0495 -0.25173,0.87354 -0.24572,0.95841 0.002,0.0311 0.0613,-0.16217 0.13139,-0.42955 0.0701,-0.26737 0.1215,-0.50536 0.11433,-0.52886 z m 0.0456,-0.16444 c -0.0141,-0.0353 -0.0246,-0.0248 -0.0267,0.0267 -0.002,0.0466 0.009,0.0727 0.0232,0.058 0.0147,-0.0147 0.0162,-0.0528 0.003,-0.0847 z m 0.0962,-0.30107 c 0,-0.0418 -0.014,-0.0336 -0.038,0.0221 -0.0209,0.0486 -0.038,0.11822 -0.038,0.15468 0,0.0418 0.014,0.0336 0.038,-0.0221 0.0209,-0.0486 0.038,-0.11822 0.038,-0.15468 z m 0.13258,-0.44194 c 0,-0.0418 -0.014,-0.0336 -0.038,0.0221 -0.0209,0.0486 -0.038,0.11822 -0.038,0.15468 0,0.0418 0.014,0.0336 0.038,-0.0221 0.0209,-0.0486 0.038,-0.11822 0.038,-0.15468 z m 7.74019,-6.95517 c 0,-0.11033 -0.11961,-0.17178 -0.24987,-0.12836 -0.18346,0.0611 -0.17615,0.13701 0.0151,0.15688 0.0927,0.01 0.18339,0.0208 0.20162,0.0249 0.0182,0.004 0.0331,-0.02 0.0331,-0.0534 z"
   id="path1087" /><path
   style="fill:#ff6600;fill-opacity:1;stroke:#ff6600;stroke-width:0.0441942;stroke-opacity:1"
   d="m 264.44186,341.17263 c -0.25948,-0.15766 -0.37897,-0.27563 -0.85238,-0.84155 -0.25059,-0.29956 -0.73056,-0.87279 -1.0666,-1.27385 -2.50367,-2.98812 -3.87288,-5.48691 -4.62528,-8.44109 -0.33016,-1.29633 -0.36946,-1.68552 -0.37038,-3.66812 -6.9e-4,-1.47201 0.0117,-1.82534 0.0793,-2.2539 0.42287,-2.68265 1.00956,-4.45058 2.94785,-8.88303 0.34545,-0.78997 0.65556,-1.50056 0.68913,-1.57908 l 0.061,-0.14277 -0.65287,-0.65273 c -1.24888,-1.2486 -1.71989,-2.18768 -1.89007,-3.76841 -0.084,-0.77975 -0.14967,-1.29266 -0.16798,-1.31097 -0.0391,-0.0391 -3.07902,-0.81027 -15.49755,-3.93147 -14.13218,-3.55191 -14.75682,-3.71021 -14.79649,-3.74988 -0.0336,-0.0336 -0.0809,-0.8544 -0.13747,-2.38768 -0.026,-0.7049 -0.0596,-1.59486 -0.0747,-1.97769 l -0.0274,-0.69606 h 8.72477 8.72476 l 2.62713,1.81723 c 5.51744,3.81651 10.86263,7.5043 11.23435,7.75089 0.33821,0.22437 0.39962,0.25059 0.48613,0.20762 0.0545,-0.027 0.33768,-0.2702 0.62936,-0.54034 0.80223,-0.74297 1.38295,-1.10266 2.24632,-1.39132 0.65037,-0.21744 0.96976,-0.25456 1.99188,-0.23147 0.99599,0.0225 1.25329,0.0724 1.97283,0.38261 0.60303,0.25998 0.98417,0.49523 1.58664,0.97933 0.3024,0.24298 0.57524,0.43204 0.60631,0.42011 0.082,-0.0315 2.00466,-1.37424 8.05383,-5.6248 l 5.36507,-3.76986 h 9.22436 9.22436 l 0.0271,0.20993 c 0.0378,0.29311 0.24351,3.07597 0.28671,3.87804 0.0196,0.3646 0.02,0.68106 8.9e-4,0.70324 -0.0191,0.0222 -6.40449,1.63563 -14.18964,3.58544 -17.42672,4.36456 -16.44244,4.11433 -16.50151,4.1951 -0.0284,0.0388 -0.0594,0.3928 -0.0746,0.85158 -0.0395,1.19318 -0.18663,1.83262 -0.61773,2.68545 -0.25824,0.51087 -0.54149,0.9093 -1.03152,1.45096 -0.21619,0.23896 -0.43088,0.48141 -0.47709,0.53875 l -0.084,0.10427 0.40747,0.70842 c 1.2919,2.24608 2.02503,4.2042 2.3676,6.3237 0.15145,0.93698 0.17896,2.83068 0.0603,4.15425 -0.12512,1.39629 -0.59947,3.3546 -1.24059,5.12167 -0.38706,1.06684 -0.88906,2.24891 -2.36963,5.5798 -1.5662,3.52355 -1.77195,4.00624 -1.94864,4.5715 -0.1366,0.43701 -0.34013,0.81026 -0.50467,0.9255 -0.1275,0.0893 -0.24465,0.0813 -0.42666,-0.0293 z m 0.07,-1.87976 c 0.0264,-0.13185 0.0164,-0.14308 -0.25329,-0.28554 -0.92468,-0.48842 -2.7375,-2.88171 -3.94578,-5.20921 -0.18297,-0.35245 -0.33309,-0.62455 -0.3336,-0.60468 -0.002,0.0778 0.64205,1.29729 1.00115,1.89569 0.7623,1.27026 1.79136,2.63852 2.95114,3.9239 0.48986,0.54291 0.52443,0.55958 0.58038,0.27984 z m -4.61684,-6.36341 c -0.0493,-0.0935 -0.0905,-0.15566 -0.0916,-0.13826 -0.003,0.0508 0.14474,0.34463 0.16385,0.32553 0.01,-0.01 -0.023,-0.0938 -0.0723,-0.18727 z m -0.17653,-0.39861 c -0.0521,-0.0896 -0.0647,-0.0609 -0.022,0.0502 0.0152,0.0395 0.0369,0.0625 0.0482,0.0511 0.0114,-0.0114 -4e-4,-0.057 -0.0262,-0.10135 z m 7.47849,-18.02587 c -0.0316,-0.0823 -0.2858,-0.0714 -0.31366,0.0134 -0.0125,0.0381 0.0375,0.0552 0.16094,0.0552 0.14377,0 0.17387,-0.0135 0.15272,-0.0687 z"
   id="path1089" /><path
   style="fill:#ff6600;fill-opacity:1;stroke:#ff6600;stroke-width:0.0441942;stroke-opacity:1"
   d="m 264.27844,341.05634 c -0.3523,-0.26914 -2.11735,-2.36267 -3.02681,-3.5901 -1.74713,-2.35796 -2.79374,-4.52359 -3.41476,-7.06573 -0.28616,-1.17141 -0.31082,-1.44951 -0.31003,-3.49668 6.8e-4,-1.79365 0.003,-1.84936 0.12073,-2.52871 0.43614,-2.52397 1.02232,-4.26101 2.86021,-8.47564 l 0.78051,-1.78986 -0.64397,-0.66478 c -0.70448,-0.72723 -1.04525,-1.17259 -1.32842,-1.73614 -0.35931,-0.71505 -0.46821,-1.15545 -0.61877,-2.50231 -0.0488,-0.43624 -0.10363,-0.80796 -0.12193,-0.82604 -0.0665,-0.0657 -1.17224,-0.34671 -20.47307,-5.20316 -5.31103,-1.33635 -9.69047,-2.44299 -9.73208,-2.4592 -0.0416,-0.0162 -0.0854,-0.0624 -0.0972,-0.10273 -0.0343,-0.11659 -0.2022,-4.03106 -0.2026,-4.72469 l -1.7e-4,-0.27622 h 8.72832 8.72832 l 2.64063,1.82637 c 12.09722,8.36692 11.56177,8.00293 11.67981,7.93977 0.049,-0.0263 0.32233,-0.25843 0.60732,-0.51596 0.82913,-0.74923 1.43021,-1.12634 2.2364,-1.4031 0.57832,-0.19853 0.9324,-0.24568 1.84515,-0.24568 1.14347,0 1.61894,0.10507 2.52852,0.55871 0.46167,0.23026 0.74251,0.41719 1.31062,0.87235 0.23091,0.185 0.44788,0.33644 0.48214,0.33654 0.0933,2.6e-4 0.90401,-0.5628 8.91921,-6.19456 l 4.5179,-3.17444 h 9.23365 9.23366 l 0.0259,0.16573 c 0.0309,0.19811 0.18071,2.16037 0.2454,3.21513 0.0253,0.41321 0.0557,0.89494 0.0674,1.07051 0.0181,0.27163 0.01,0.3252 -0.0554,0.35939 -0.0422,0.0221 -2.51288,0.65164 -5.49046,1.39898 -2.97759,0.74733 -9.71941,2.43911 -14.98183,3.7595 -9.27961,2.32833 -10.14619,2.54871 -10.18855,2.59107 -0.011,0.011 -0.0398,0.39621 -0.0642,0.85612 -0.0612,1.1573 -0.1351,1.55267 -0.42388,2.26884 -0.25635,0.63574 -0.61037,1.1824 -1.18583,1.83108 -0.17218,0.1941 -0.37834,0.42807 -0.45812,0.51993 l -0.14506,0.16701 0.40348,0.69842 c 1.52522,2.64009 2.33125,5.08073 2.47827,7.50407 0.0502,0.82806 0.0249,2.26502 -0.0537,3.04732 -0.16082,1.60085 -0.70915,3.72323 -1.46847,5.68391 -0.32551,0.84055 -0.84389,2.04435 -2.05415,4.77033 -1.48175,3.33747 -1.77965,4.03331 -1.99872,4.66864 -0.20021,0.58063 -0.33968,0.84794 -0.5139,0.98499 -0.1784,0.14032 -0.31677,0.11384 -0.62153,-0.11898 z m 0.21306,-1.75021 c 0.0302,-0.11306 0.0115,-0.13428 -0.28486,-0.32357 -0.17446,-0.11142 -0.5048,-0.38382 -0.73407,-0.60534 l -0.41687,-0.40275 0.33327,0.39775 c 0.49654,0.59261 0.97026,1.0882 1.02329,1.07053 0.0258,-0.009 0.0614,-0.0701 0.0792,-0.13662 z m -1.41966,-1.37044 c 0,-0.009 -0.0348,-0.044 -0.0773,-0.0773 -0.0701,-0.055 -0.0717,-0.0534 -0.0167,0.0167 0.0577,0.0736 0.094,0.097 0.094,0.0607 z m 4.11006,-23.40362 c 0,-0.0229 -0.021,-0.0546 -0.0467,-0.0704 -0.0667,-0.0412 -0.27148,0.0178 -0.23975,0.0691 0.0341,0.0551 0.28646,0.0563 0.28646,10e-4 z"
   id="path1091" /><path
   style="fill:#ff6600;fill-opacity:1;stroke:#ff6600;stroke-width:0.0441942;stroke-opacity:1"
   d="m 264.31454,341.10121 c -0.32741,-0.23915 -2.00362,-2.21649 -2.98774,-3.52449 -1.74347,-2.31726 -2.83756,-4.54123 -3.46655,-7.04646 -0.29112,-1.15953 -0.31978,-1.42813 -0.34457,-3.22868 -0.0303,-2.20376 0.0401,-2.86986 0.50022,-4.72878 0.42972,-1.73612 1.10724,-3.53792 2.69216,-7.15946 0.26062,-0.59551 0.49355,-1.13805 0.51762,-1.20563 0.0419,-0.11755 0.0153,-0.15206 -0.61543,-0.79738 -0.95795,-0.98018 -1.42163,-1.7166 -1.67413,-2.65889 -0.0587,-0.21908 -0.1589,-0.82591 -0.22266,-1.3485 -0.0638,-0.5226 -0.13838,-0.97353 -0.16582,-1.00206 -0.0827,-0.086 -1.05575,-0.33479 -16.7332,-4.27856 -12.17322,-3.06226 -13.45601,-3.389 -13.50942,-3.44101 -0.0338,-0.0329 -0.0692,-0.38655 -0.1001,-1.00109 -0.075,-1.49082 -0.13425,-3.07144 -0.13457,-3.59078 l -3e-4,-0.47509 8.7394,9.8e-4 8.7394,9.8e-4 4.22054,2.9201 c 8.92908,6.17784 9.90637,6.84533 10.02015,6.84382 0.043,-5.7e-4 0.2771,-0.18095 0.52016,-0.40084 1.03572,-0.93696 1.64951,-1.30985 2.65653,-1.61391 0.36089,-0.10896 0.47127,-0.12028 1.35589,-0.13907 0.77672,-0.0165 1.0428,-0.006 1.37537,0.0538 0.71906,0.12947 1.65624,0.56682 2.3241,1.08457 0.15799,0.12248 0.41249,0.31422 0.56555,0.42608 l 0.27828,0.20338 0.45092,-0.3 c 0.51965,-0.34572 3.77251,-2.62157 9.17927,-6.42224 l 3.7786,-2.65616 9.24412,-7.4e-4 9.24412,-7.5e-4 0.0248,0.12154 c 0.0616,0.30198 0.3625,4.63946 0.32452,4.67744 -0.0294,0.0294 -2.23082,0.58645 -12.2968,3.11144 -14.0386,3.52149 -18.26936,4.59078 -18.36378,4.64132 -0.0591,0.0316 -0.0873,0.0926 -0.0875,0.18879 -4.5e-4,0.41145 -0.0974,1.60347 -0.1564,1.92199 -0.19474,1.05234 -0.67199,1.93745 -1.62322,3.01049 -0.23646,0.26675 -0.42993,0.509 -0.42993,0.53834 0,0.0293 0.17225,0.35382 0.38279,0.72106 1.47991,2.58149 2.27636,4.95542 2.44967,7.30158 0.0637,0.86204 0.0264,2.6889 -0.0706,3.46066 -0.17316,1.37771 -0.59884,3.09821 -1.15452,4.66632 -0.39664,1.11931 -0.74241,1.93893 -2.36417,5.60413 -1.38978,3.14095 -1.7526,3.98967 -1.959,4.58264 -0.18983,0.54537 -0.30635,0.7789 -0.47959,0.96121 -0.18774,0.19757 -0.35116,0.19197 -0.64422,-0.0221 z m 0.14942,-1.82356 c 0,-0.0781 -0.0707,-0.15161 -0.28727,-0.29844 -0.15799,-0.10712 -0.38732,-0.29249 -0.50962,-0.41193 -0.51399,-0.50197 -0.21156,-0.0942 0.46312,0.62442 0.2224,0.23689 0.33377,0.26557 0.33377,0.0859 z m 2.69351,-24.74441 c 0.0137,-0.0222 0,-0.0488 -0.0305,-0.0591 -0.0821,-0.0276 -0.21297,0.0151 -0.185,0.0604 0.0317,0.0514 0.18357,0.0505 0.21554,-10e-4 z"
   id="path1093" /><path
   style="fill:#ff6600;fill-opacity:1;stroke:#ff6600;stroke-width:0.0441942;stroke-opacity:1"
   d="m 264.3281,341.1128 c -0.22187,-0.15708 -0.40495,-0.35462 -1.27016,-1.37056 -2.96172,-3.47767 -4.37799,-5.97735 -5.19573,-9.17029 -0.29456,-1.15015 -0.32208,-1.41204 -0.34673,-3.29968 -0.0238,-1.82538 0.004,-2.30694 0.18909,-3.32193 0.35994,-1.96933 1.05129,-4.02885 2.42068,-7.21117 0.25626,-0.59552 0.61601,-1.43054 0.79945,-1.85561 l 0.33352,-0.77285 -0.21078,-0.22152 c -0.11594,-0.12183 -0.39151,-0.41196 -0.61238,-0.64473 -1.12373,-1.18422 -1.50745,-2.01378 -1.7156,-3.70894 -0.0373,-0.30384 -0.0892,-0.68573 -0.11527,-0.84866 l -0.0474,-0.29624 -0.22838,-0.066 c -0.85592,-0.24727 -3.626,-0.95081 -15.9394,-4.04825 -11.64472,-2.92924 -14.02793,-3.5373 -14.0842,-3.59351 -0.0738,-0.0737 -0.17698,-2.02743 -0.24608,-4.65976 l -0.0107,-0.40882 8.75463,2e-5 8.75463,2e-5 1.5868,1.09654 c 0.87275,0.60309 3.19769,2.21021 5.16654,3.57138 6.43235,4.44702 7.39051,5.099 7.49353,5.099 0.0183,0 0.21295,-0.15852 0.43248,-0.35227 1.16839,-1.03116 1.78272,-1.40392 2.77058,-1.68112 0.72483,-0.20338 2.35911,-0.19208 3.09199,0.0214 0.65449,0.19064 1.37505,0.57564 2.11012,1.12748 l 0.65171,0.48925 0.40895,-0.27401 c 0.6279,-0.42072 3.4044,-2.36073 8.42647,-5.8878 l 4.57038,-3.20984 h 9.25051 9.25051 l 0.0219,0.0994 c 0.047,0.21359 0.23781,2.7313 0.31464,4.15058 l 0.0303,0.55981 -0.17151,0.0477 c -0.33932,0.0944 -6.63346,1.6805 -16.76642,4.22519 -12.77735,3.20877 -13.75491,3.45854 -13.79731,3.52526 -0.0188,0.0295 -0.0344,0.16514 -0.0348,0.30137 -9.8e-4,0.35848 -0.0809,1.33664 -0.13866,1.69685 -0.15045,0.93844 -0.62936,1.88719 -1.42773,2.82843 -0.18556,0.21876 -0.40884,0.48236 -0.49618,0.58578 l -0.1588,0.18804 0.25496,0.45277 c 1.65906,2.94626 2.38607,5.04665 2.58893,7.47966 0.0659,0.79096 0.0241,2.94228 -0.0709,3.64602 -0.15014,1.11195 -0.50372,2.61623 -0.91413,3.88908 -0.42029,1.30353 -0.85099,2.3442 -2.74676,6.63685 -1.27042,2.87666 -1.61647,3.69012 -1.83914,4.32331 -0.34451,0.97963 -0.61713,1.19571 -1.08801,0.86233 z m 0.11376,-1.83272 c 0,-0.0476 -0.0646,-0.13631 -0.14363,-0.19718 -0.079,-0.0609 -0.25063,-0.19596 -0.38141,-0.30019 -0.49846,-0.39729 -0.46911,-0.33605 0.14744,0.30766 0.27405,0.28613 0.3776,0.33815 0.3776,0.18971 z m 2.67375,-24.75062 c 0.015,-0.0243 -0.0148,-0.0442 -0.0663,-0.0442 -0.0515,0 -0.0813,0.0199 -0.0663,0.0442 0.015,0.0243 0.0449,0.0442 0.0663,0.0442 0.0214,0 0.0513,-0.0199 0.0663,-0.0442 z"
   id="path1095" /><path
   style="fill:#ff6600;fill-opacity:1;stroke:#ff6600;stroke-width:0.0441942;stroke-opacity:1"
   d="m 264.33382,341.12679 c -0.32386,-0.21452 -1.85248,-2.00303 -2.92088,-3.41749 -1.7306,-2.29114 -2.74489,-4.25824 -3.42502,-6.64241 -0.43365,-1.52015 -0.50133,-2.172 -0.47379,-4.56325 0.018,-1.5595 0.026,-1.69384 0.13939,-2.33181 0.40581,-2.28294 0.99794,-4.02431 2.77043,-8.14744 0.43545,-1.01295 0.79173,-1.86936 0.79173,-1.90313 0,-0.0338 -0.0622,-0.11981 -0.13824,-0.1912 -0.40987,-0.38482 -1.23044,-1.32835 -1.47534,-1.6964 -0.48724,-0.73226 -0.70141,-1.34985 -0.85902,-2.47717 -0.18001,-1.28748 -0.18765,-1.32732 -0.26204,-1.36713 -0.14853,-0.0795 -2.31411,-0.63423 -11.58427,-2.96744 -16.9161,-4.25762 -18.51942,-4.66628 -18.59206,-4.73892 -0.063,-0.063 -0.12646,-0.97147 -0.18895,-2.70426 -0.0245,-0.68059 -0.0549,-1.491 -0.0674,-1.80091 l -0.0228,-0.56348 h 8.77379 8.77378 l 4.84925,3.35161 c 9.31884,6.44083 9.30771,6.43329 9.41792,6.37346 0.0394,-0.0214 0.31516,-0.24883 0.61272,-0.50537 0.90827,-0.78306 1.42834,-1.10776 2.22112,-1.3867 0.64291,-0.22622 1.52267,-0.31079 2.45933,-0.23642 0.64435,0.0512 1.01369,0.13792 1.52916,0.35917 0.55357,0.23761 0.96846,0.48543 1.60105,0.95633 0.30507,0.22709 0.58095,0.4129 0.61306,0.4129 0.0826,0 1.87507,-1.24732 10.49065,-7.29992 l 2.88257,-2.02506 h 9.26117 c 7.36887,0 9.26522,0.0113 9.28103,0.0553 0.0578,0.16075 0.34315,4.18653 0.32226,4.54695 l -0.0134,0.23193 -0.55243,0.14065 c -0.30384,0.0774 -6.06123,1.52637 -12.79421,3.22003 -15.9842,4.02076 -16.72187,4.2076 -17.13487,4.3399 -0.24607,0.0788 -0.22731,0.008 -0.29634,1.11263 -0.10684,1.70911 -0.4394,2.50381 -1.65647,3.9584 l -0.51296,0.61308 0.0833,0.13822 c 0.0458,0.076 0.25847,0.45642 0.47257,0.84533 1.3455,2.44407 2.06882,4.5971 2.27165,6.76171 0.0581,0.6201 0.0587,2.38502 10e-4,3.15988 -0.11375,1.52877 -0.6346,3.71831 -1.32461,5.56847 -0.41068,1.10116 -0.57376,1.48456 -2.3309,5.48008 -1.29858,2.95281 -1.65986,3.80143 -1.89538,4.45206 -0.36522,1.00892 -0.61259,1.20905 -1.09748,0.88787 z m 0.10804,-1.81805 c 0,-0.0318 -0.0249,-0.0879 -0.0552,-0.12474 -0.0564,-0.0683 -0.57603,-0.47567 -0.69606,-0.5457 -0.0825,-0.0482 0.30762,0.39011 0.52048,0.58466 0.16898,0.15443 0.23082,0.17741 0.23082,0.0858 z"
   id="path1097" /><path
   style="fill:#ff6600;fill-opacity:1;stroke:#ff6600;stroke-width:0.0441942;stroke-opacity:1"
   d="m 264.44418,341.19352 c -0.25822,-0.12867 -0.67484,-0.57046 -1.70071,-1.80344 -2.76025,-3.3175 -4.06122,-5.64533 -4.86713,-8.70877 -0.32786,-1.24627 -0.37737,-1.74544 -0.3773,-3.80439 9e-5,-2.02738 0.0705,-2.63882 0.498,-4.32622 0.42519,-1.67809 0.93805,-3.05933 2.47187,-6.65729 0.41073,-0.96346 0.74677,-1.76343 0.74677,-1.77772 0,-0.0143 -0.23491,-0.27326 -0.52202,-0.57548 -0.64678,-0.68082 -0.95818,-1.05953 -1.21837,-1.48174 -0.42296,-0.68634 -0.58432,-1.22098 -0.78147,-2.58924 -0.0736,-0.51044 -0.14339,-0.96057 -0.1552,-1.00028 -0.0336,-0.11303 0.0715,-0.0858 -14.82383,-3.83913 -14.90276,-3.7552 -15.31878,-3.8618 -15.4115,-3.94922 -0.0822,-0.0775 -0.12876,-0.84864 -0.25981,-4.3039 l -0.0289,-0.76235 8.78924,3.3e-4 8.78924,3.2e-4 2.54117,1.75821 c 7.31718,5.0627 10.83419,7.48113 11.32675,7.78871 0.2543,0.1588 0.31523,0.18024 0.39775,0.13994 0.0536,-0.0262 0.35598,-0.26945 0.67196,-0.54062 0.6391,-0.54845 1.08422,-0.85876 1.5468,-1.07833 0.40263,-0.19111 0.93347,-0.36696 1.27472,-0.42228 0.81362,-0.13188 2.06475,-0.0912 2.72485,0.0887 0.51173,0.13941 1.41497,0.60366 1.98981,1.02271 0.27894,0.20335 0.572,0.41569 0.65124,0.47185 l 0.14408,0.10213 0.16528,-0.10152 c 0.36683,-0.22531 5.6173,-3.89177 11.4348,-7.98504 l 1.76776,-1.24383 9.27956,0.0104 9.27955,0.0104 0.0298,0.17678 c 0.0604,0.35829 0.3041,3.82369 0.3041,4.32434 v 0.31774 l -0.91703,0.23051 c -0.50436,0.12677 -3.83053,0.96413 -7.39147,1.86079 -3.56095,0.89667 -9.13936,2.30048 -12.39647,3.11959 -7.48538,1.88246 -9.66729,2.43999 -9.85366,2.51786 -0.16771,0.0701 -0.14845,-0.0288 -0.24616,1.26307 -0.11716,1.54886 -0.46582,2.35805 -1.6091,3.73441 -0.26248,0.31599 -0.48674,0.59896 -0.49836,0.62882 -0.0116,0.0299 0.14755,0.35801 0.35373,0.72921 1.47219,2.65051 2.18927,4.72143 2.42011,6.98929 0.0833,0.81893 0.032,3.33109 -0.0833,4.07124 -0.18413,1.18254 -0.50233,2.50325 -0.89617,3.71963 -0.43202,1.33429 -0.68243,1.94509 -2.42481,5.9147 -1.43795,3.27605 -1.76995,4.05064 -2.09905,4.89738 -0.28694,0.73828 -0.46628,1.03806 -0.66994,1.11985 -0.12401,0.0498 -0.16294,0.0436 -0.36719,-0.0581 z m -0.0453,-1.95716 c -0.0476,-0.0889 -0.54189,-0.48849 -0.6043,-0.48849 -0.0194,0 0.0929,0.12927 0.24948,0.28726 0.2822,0.28473 0.45062,0.38025 0.35482,0.20123 z"
   id="path1099" /><path
   style="fill:#ff6600;fill-opacity:1;stroke:#ff6600;stroke-width:0.00390625;stroke-opacity:1"
   d="m 264.37319,339.28703 c -0.061,-0.0347 -0.15151,-0.11212 -0.2826,-0.24153 -0.0931,-0.0919 -0.20962,-0.21412 -0.21294,-0.22333 -0.003,-0.008 0.11532,0.0797 0.20648,0.15322 0.13301,0.10727 0.26689,0.23053 0.29034,0.26731 0.0116,0.0182 0.0273,0.0567 0.0231,0.0566 -0.002,-2e-5 -0.0125,-0.006 -0.0244,-0.0123 z"
   id="path1101" /><path
   style="fill:#5599ff;stroke:#5599ff;stroke-width:1px;stroke-linecap:butt;stroke-linejoin:miter;stroke-opacity:1"
   d="m 270.34182,308.14686 13.72672,-3.64686 -1.66201,-8.8824 -13.54434,9.32842 c 0.8059,0.9106 1.13156,2.06133 1.47963,3.20084 z"
   id="path1103"
   sodipodi:nodetypes="ccccc" /><path
   style="fill:#5599ff;fill-opacity:1;stroke:#5599ff;stroke-width:1px;stroke-linecap:butt;stroke-linejoin:miter;stroke-opacity:1"
   d="m 258.55679,308.39062 -11.9533,-3.00888 3.09359,-6.89429 10.11901,7.07398 c -0.53215,0.77449 -1.17412,1.38425 -1.2593,2.82919 z"
   id="path1105"
   sodipodi:nodetypes="ccccc" /></svg>
