<svg id="flat" height="512" viewBox="0 0 512 512" width="512" xmlns="http://www.w3.org/2000/svg"><path d="m120 488v-100.186a27.814 27.814 0 0 1 27.814-27.814h216.372a27.814 27.814 0 0 1 27.814 27.814v100.186z" fill="#a5662d"/><path d="m364.186 360h-216.372a27.819 27.819 0 0 0 -25.967 17.847 27.729 27.729 0 0 1 9.967-1.847h216.372a27.814 27.814 0 0 1 27.814 27.814v84.186h16v-100.186a27.814 27.814 0 0 0 -27.814-27.814z" fill="#ba763e"/><path d="m392 488c0-75.111-60.889-144-136-144-75.111 0-136 68.889-136 144z" fill="#d1d8db"/><path d="m240 360c69.737 0 127.2 59.387 135.072 128h16.928c0-75.111-60.889-144-136-144-39.469 0-75 19.028-99.848 47.979 23.102-19.758 52.213-31.979 83.848-31.979z" fill="#dceaef"/><path d="m304 392-24 40-24-32-24 32-24-40v-8h96z" fill="#48687a"/><path d="m184 360v128h128a128 128 0 0 1 -128-128z" fill="#b9bec1"/><path d="m168 360h32v128h-32z" fill="#ba763e"/><path d="m312 360h32v128h-32z" fill="#ba763e"/><circle cx="256" cy="56" fill="#e2a23b" r="32"/><ellipse cx="256" cy="232" fill="#ffe7e1" rx="160" ry="168"/><path d="m272 384c-88.366 0-160-75.216-160-168a172.094 172.094 0 0 1 41.946-113.389c-35.397 30.815-57.946 77.336-57.946 129.389 0 92.784 71.634 168 160 168 46.743 0 88.8-21.05 118.054-54.61-27.699 24.11-63.263 38.61-102.054 38.61z" fill="#f4d2cb"/><path d="m232 56h48a144 144 0 0 1 144 144 0 0 0 0 1 0 0h-336a0 0 0 0 1 0 0 144 144 0 0 1 144-144z" fill="#ffc866"/><path d="m248 56h-16a144 144 0 0 0 -144 144h16a144 144 0 0 1 144-144z" fill="#e2a23b"/><path d="m88 200c22.057-33.086 147.216-72 240-72s160 32 96 72z" fill="#f9d59b"/><path d="m328 128c-92.784 0-217.943 38.914-240 72h.509c43.206-28.448 144.192-56 222.263-56 77.911 0 137.778 22.565 117.082 53.482 57.278-38.816-9.027-69.482-99.854-69.482z" fill="#ffedd4"/><path d="m200 200v28a12 12 0 0 0 12 12 12 12 0 0 0 12-12v-28z" fill="#2e4859"/><path d="m288 200v28a12 12 0 0 0 12 12 12 12 0 0 0 12-12v-28z" fill="#2e4859"/><g fill="#f4d2cb"><path d="m179.562 261.923a35.176 35.176 0 0 0 -39.125 0l-8.875-13.313a51.13 51.13 0 0 1 56.875 0z"/><path d="m371.562 262.656a35.176 35.176 0 0 0 -39.125 0l-8.875-13.312a51.127 51.127 0 0 1 56.875 0z"/></g></svg>